<?xml version="1.0" encoding="UTF-8" standalone="no"?>
<!-- Created with Inkscape (http://www.inkscape.org/) -->

<svg
   xmlns:dc="http://purl.org/dc/elements/1.1/"
   xmlns:cc="http://creativecommons.org/ns#"
   xmlns:rdf="http://www.w3.org/1999/02/22-rdf-syntax-ns#"
   xmlns:svg="http://www.w3.org/2000/svg"
   xmlns="http://www.w3.org/2000/svg"
   xmlns:sodipodi="http://sodipodi.sourceforge.net/DTD/sodipodi-0.dtd"
   xmlns:inkscape="http://www.inkscape.org/namespaces/inkscape"
   width="50mm"
   height="50mm"
   viewBox="0 0 177.16535 177.16535"
   id="svg2"
   version="1.1"
   inkscape:version="0.91 r13725"
   sodipodi:docname="logo.svg"
   inkscape:export-filename="/var/vm/longterm/don/wordpress/logo.256.png"
   inkscape:export-xdpi="130.05"
   inkscape:export-ydpi="130.05">
  <defs
     id="defs4">
    <inkscape:path-effect
       bendpath1-nodetypes="cc"
       bendpath4="m 86.261162,646.08984 0,56.36716"
       bendpath3="m 86.261162,702.457 580.351558,0"
       bendpath2="m 666.61272,646.08984 0,56.36716"
       bendpath1="m 86.261162,646.08984 c 197.102618,30.93911 390.873688,33.65461 580.351558,0"
       xx="true"
       yy="true"
       is_visible="true"
       id="path-effect3395"
       effect="envelope" />
    <inkscape:path-effect
       bendpath1-nodetypes="cc"
       bendpath4="m 242.90489,293.04642 0,9.02002"
       bendpath3="m 242.90489,302.06644 9.83252,0"
       bendpath2="m 252.73741,293.04642 0,9.02002"
       bendpath1="m 242.90489,293.04642 c 3.15753,0.16401 -5.35494,16.281 9.83252,0"
       xx="false"
       yy="false"
       is_visible="true"
       id="path-effect3370"
       effect="envelope" />
    <inkscape:path-effect
       bendpath1-nodetypes="cc"
       bendpath4="m 158.43028,292.90674 0,9.1597"
       bendpath3="m 158.43028,302.06644 94.30713,0"
       bendpath2="m 252.73741,292.90674 0,9.1597"
       bendpath1="m 158.43028,292.90674 c 32.16855,3.84 63.48316,4.59738 94.30713,0"
       xx="true"
       yy="true"
       is_visible="true"
       id="path-effect4270"
       effect="envelope" />
    <inkscape:path-effect
       fuse_tolerance="0"
       vertical_pattern="false"
       prop_units="false"
       tang_offset="0"
       normal_offset="0"
       spacing="0"
       scale_y_rel="false"
       prop_scale="1"
       copytype="single_stretched"
       pattern="m 13.139612,-0.1441119 10,5 0,-10 z"
       is_visible="true"
       id="path-effect4975-0-0-4"
       effect="skeletal" />
    <inkscape:path-effect
       fuse_tolerance="0"
       vertical_pattern="false"
       prop_units="false"
       tang_offset="0"
       normal_offset="0"
       spacing="0"
       scale_y_rel="false"
       prop_scale="1"
       copytype="single_stretched"
       pattern="m 63.949932,0.71954587 10,4.99999963 0,-9.9999996 z"
       is_visible="true"
       id="path-effect4378-1-0-4"
       effect="skeletal" />
    <inkscape:path-effect
       fuse_tolerance="0"
       vertical_pattern="false"
       prop_units="false"
       tang_offset="0"
       normal_offset="0"
       spacing="0"
       scale_y_rel="false"
       prop_scale="1"
       copytype="single_stretched"
       pattern="m 123.94993,12.862403 10,5 0,-9.9999999 z"
       is_visible="true"
       id="path-effect4378-5-1-4"
       effect="skeletal" />
    <inkscape:path-effect
       fuse_tolerance="0"
       vertical_pattern="false"
       prop_units="false"
       tang_offset="0"
       normal_offset="0"
       spacing="0"
       scale_y_rel="false"
       prop_scale="1"
       copytype="single_stretched"
       pattern="m -44,49.285714 10,5 0,-10 z"
       is_visible="true"
       id="path-effect4995-9-8"
       effect="skeletal" />
  </defs>
  <sodipodi:namedview
     id="base"
     pagecolor="#ffffff"
     bordercolor="#666666"
     borderopacity="1.0"
     inkscape:pageopacity="0"
     inkscape:pageshadow="2"
     inkscape:zoom="1.4"
     inkscape:cx="56.660991"
     inkscape:cy="50.970087"
     inkscape:document-units="px"
     inkscape:current-layer="layer1"
     showgrid="false"
     inkscape:window-width="900"
     inkscape:window-height="1576"
     inkscape:window-x="0"
     inkscape:window-y="24"
     inkscape:window-maximized="1" />
  <metadata
     id="metadata7">
    <rdf:RDF>
      <cc:Work
         rdf:about="">
        <dc:format>image/svg+xml</dc:format>
        <dc:type
           rdf:resource="http://purl.org/dc/dcmitype/StillImage" />
        <dc:title></dc:title>
      </cc:Work>
    </rdf:RDF>
  </metadata>
  <g
     inkscape:label="Layer 1"
     inkscape:groupmode="layer"
     id="layer1"
     transform="translate(0,-875.19688)">
    <rect
       style="fill:#800080;fill-opacity:1;stroke:none;stroke-width:1;stroke-miterlimit:4;stroke-dasharray:none;stroke-opacity:1"
       id="rect4450"
       width="177.85715"
       height="177.14285"
       x="-0.71428573"
       y="875.21936" />
    <g
       id="layer1-6"
       inkscape:label="Layer 1"
       transform="matrix(0.12783789,0,0,0.14282768,4.3266813,980.04187)">
      <g
         id="g4293">
        <g
           transform="matrix(3.6646763,0,0,3.6646763,-87.354626,6.2313059)"
           id="g3038-1-3">
          <path
             style="fill:#b3b3b3;fill-opacity:1;stroke:none"
             d="m 118.64094,9.9714206 c -2.79457,1.2888634 -5.07235,3.1252724 -7.90477,4.4377974 -7.78215,5.822374 -13.375478,14.463909 -16.880429,23.700328 l -10e-7,2e-6 c -1.177809,3.257219 -1.542054,6.584761 -1.767446,9.607577 -0.316149,3.805963 -0.396007,7.606543 -0.379538,11.361567 l 0,2e-6 c 0.151977,4.488497 0.305072,8.987511 0.459286,13.497041 1.65304,-0.201838 3.307,-0.403909 4.96188,-0.606211 l 0,0 c 1.65488,-0.202302 3.308838,-0.404395 4.961868,-0.606278 -0.76109,-4.321497 -1.52329,-8.65351 -2.286615,-12.996039 l -2.272844,0.252535 c -0.509402,-3.533253 -3.711423,-6.787609 -3.905946,-10.287856 -0.125867,-2.955784 0.972854,-6.710355 1.539459,-9.172454 2.067211,-9.032755 7.533676,-17.112936 14.255626,-23.718059 2.54916,-1.643128 6.63247,-3.803163 9.21947,-5.4699524 z"
             id="path5523-7-9"
             inkscape:connector-curvature="0"
             sodipodi:nodetypes="ccccccccccccccccc" />
          <path
             style="fill:#ffff00;fill-opacity:1;stroke:none"
             d="m 86.775406,91.941586 -17.38985,6.630583 19.69712,-0.477853 -0.9067,7.364344 14.942614,-2.55752 4.68618,4.78514 12.42609,-4.97742 19.96669,5.83982 9.06649,-8.14709 28.65429,-2.394924 -12.5637,-6.40297 6.58959,-11.229115 -15.18155,6.183375 -4.03772,-12.497728 -12.69,12.305448 -19.61182,-12.689993 -3.46091,13.459093 -20.957724,-13.074548 -5.41096,9.188095 -23.15472,-4.678178 z"
             id="path5197-8-3"
             inkscape:connector-curvature="0"
             sodipodi:nodetypes="ccccccccccccccccccccc" />
          <g
             id="Hammer-5-6"
             transform="matrix(0.26918179,0,0,0.26918179,65.489743,-14.067864)"
             inkscape:label="#g4967">
            <g
               id="Hammer_Handle-5-7"
               inkscape:label="#g5140">
              <path
                 style="fill:#ff7f2a;fill-opacity:1;stroke:none"
                 d="m 246.07144,382.71933 160.87273,-126.6997 c 2.03896,-4.81415 1.3298,-3.85758 1.33894,-9.03386 0.004,-2.0797 -2.37403,-2.99753 -3.42796,-3.74341 l -4.44044,-0.5552 -10.93029,1.90826 -206.98441,51.69534 -2.14286,49.28571 34.28571,32.14286 z"
                 id="path4370-9-1"
                 inkscape:connector-curvature="0"
                 sodipodi:nodetypes="ccsccccccc" />
              <path
                 style="color:#000000;font-style:normal;font-variant:normal;font-weight:normal;font-stretch:normal;font-size:medium;line-height:normal;font-family:Sans;-inkscape-font-specification:Sans;text-indent:0;text-align:start;text-decoration:none;text-decoration-line:none;letter-spacing:normal;word-spacing:normal;text-transform:none;direction:ltr;block-progression:tb;writing-mode:lr-tb;baseline-shift:baseline;text-anchor:start;display:inline;overflow:visible;visibility:visible;fill:#000000;fill-opacity:1;fill-rule:nonzero;stroke:none;stroke-width:2.70000005;marker:none;enable-background:accumulate"
                 d="m 400.41071,242.66964 -0.54464,0.0313 -7.31268,1.23595 -1.7844,0.34183 -1.60005,0.35648 -207.48149,50.55235 -0.96875,0.21875 -0.0625,1.03125 -2.125,49.28125 -0.0313,0.625 0.4375,0.40625 34.28125,32.15625 0.3125,0.28125 0.40625,0.0625 31.4375,5 0.5625,0.0937 0.46875,-0.375 159.84821,-127.33482 0.68304,-0.59822 0.21429,-0.40178 c 1.02888,-2.42926 1.21159,-2.77203 1.30803,-4.00893 0.0964,-1.2369 -0.067,-1.04032 -0.0625,-3.56696 0.003,-1.55478 -0.1986,-2.54745 -1.08482,-3.25893 -0.88622,-0.71148 -1.49446,-1.09209 -1.84375,-1.33929 l -0.57143,-0.15178 -0.70089,-0.16523 -3.56697,-0.47322 z M 400,244.02679 l 4.17411,0.47767 c 0.60722,0.39096 1.30893,0.69759 1.78571,1.08036 0.56528,0.45383 1.23762,1.27865 1.23661,1.80357 -0.005,2.64964 0.0878,3.77115 0.0267,4.55357 -0.0567,0.72693 -1.06893,1.45103 -1.91071,3.46429 L 242.33036,379.35714 214.75,376.65625 l -33.5,-31.4375 4.20536,-42.6875 203.76339,-56.40625 0.0937,-0.0313 z"
                 id="path4370-2-8-4"
                 inkscape:connector-curvature="0"
                 sodipodi:nodetypes="ccccccccccccccccccccccscccccccscccccccccc" />
              <path
                 style="fill:#ffccaa;fill-opacity:1;stroke:none"
                 d="m 405.38238,253.12339 0.89286,-1.96429 -2.52538,0.35189 -177.89214,93.30709 15.77466,17.23387 z"
                 id="path5170-0-0"
                 inkscape:connector-curvature="0"
                 sodipodi:nodetypes="cccccc" />
            </g>
            <g
               id="Hammer_Head-4-4"
               inkscape:label="#g4963">
              <path
                 style="fill:#808080;stroke:none"
                 d="m 90,258.08929 0,124.28125 1.78125,0 c -0.248479,0.69801 -0.34375,1.4132 -0.34375,2.125 0,14.99059 56.11091,27.15625 125.34375,27.15625 69.23284,0 125.375,-12.16566 125.375,-27.15625 0,-0.7118 -0.12652,-1.42699 -0.375,-2.125 l 1.78125,0 -57.85714,-131.42411 z"
                 id="path4359-3-6"
                 inkscape:connector-curvature="0" />
              <path
                 style="color:#000000;font-style:normal;font-variant:normal;font-weight:normal;font-stretch:normal;font-size:medium;line-height:normal;font-family:Sans;-inkscape-font-specification:Sans;text-indent:0;text-align:start;text-decoration:none;text-decoration-line:none;letter-spacing:normal;word-spacing:normal;text-transform:none;direction:ltr;block-progression:tb;writing-mode:lr-tb;baseline-shift:baseline;text-anchor:start;display:inline;overflow:visible;visibility:visible;fill:#000000;fill-opacity:1;fill-rule:nonzero;stroke:none;stroke-width:10;marker:none;enable-background:accumulate"
                 d="m 283.03571,246.29911 -195.718746,7.15625 c -2.544396,0.0957 -2.655275,-4.72026 -2.669643,-2.17411 l -2.142857,131.42411 c 0.0012,1.36754 0.592684,2.72457 1.59375,3.65625 0.404939,2.81883 1.837873,5.35086 3.75,7.375 2.252434,2.38438 5.156338,4.33227 8.65625,6.125 6.999816,3.58545 16.495666,6.54915 28.093746,9.0625 23.19616,5.0267 54.77821,8.0625 89.6875,8.0625 34.90929,0 66.51501,-3.03589 89.71875,-8.0625 11.60187,-2.5133 21.09117,-5.4773 28.09375,-9.0625 3.50129,-1.7926 6.40281,-3.74078 8.65625,-6.125 1.91298,-2.024 3.34478,-4.55559 3.75,-7.375 1.48536,-1.41132 1.95726,-3.78396 1.125,-5.65625 l -57.84375,-131.4375 c -0.80396,-1.81144 -2.76944,-3.03986 -4.75,-2.96875 z m 1.96875,7.98214 49.71875,126.42411 c -0.51418,1.15038 -0.57127,2.49775 -0.15625,3.6875 0.0664,0.18661 0.0937,0.31819 0.0937,0.4375 0,0.31334 -0.10022,0.91212 -1.1875,2.0625 -1.08728,1.15038 -3.0937,2.60652 -5.9375,4.0625 -5.68761,2.91196 -14.56847,5.78556 -25.65625,8.1875 -22.17555,4.80387 -53.2702,7.84375 -87.59375,7.84375 -34.32355,0 -65.395,-3.03997 -87.5625,-7.84375 -11.08375,-2.40189 -19.97175,-5.27579 -25.65625,-8.1875 -2.842245,-1.45586 -4.850924,-2.91228 -5.937496,-4.0625 -1.086572,-1.15022 -1.1875,-1.74829 -1.1875,-2.0625 0,-0.26565 0.04049,-0.37567 0.0625,-0.4375 0.67487,-1.90607 0.04912,-4.20048 -1.5,-5.5 l -0.714286,-120.65625 190.357142,-6.8125 z"
                 id="path4359-1-9-9"
                 inkscape:connector-curvature="0"
                 sodipodi:nodetypes="cccccssssssscccccccsssssssssccccc" />
              <ellipse
                 style="fill:#cccccc;stroke:#000000;stroke-width:6.4000001;stroke-linejoin:round;stroke-miterlimit:4;stroke-dasharray:none;stroke-opacity:1"
                 id="path4361-4-6"
                 transform="translate(-37.857143,69.285714)"
                 cx="224.64285"
                 cy="182.71933"
                 rx="98.928574"
                 ry="14.642858" />
              <path
                 style="fill:#cccccc;fill-opacity:1;stroke:none"
                 d="m 95.481912,272.18598 c -0.365554,36.78626 -0.55363,73.82026 -0.564226,111.10202 10.461704,3.95293 20.984624,7.9826 31.568784,12.08903 0,0 1e-5,0 1e-5,0 34.54564,8.53598 70.59605,9.57428 106.07524,7.91018 0,0 2e-5,-1e-5 2e-5,-1e-5 18.93131,-0.88337 37.94716,-2.15688 56.88108,-4.94073 0,0 2e-5,-1e-5 2e-5,-1e-5 9.46071,-1.36853 19.20321,-3.03104 28.68793,-6.50932 0,0 2e-5,-10e-6 2e-5,-10e-6 3.54174,-1.26805 7.95826,-3.36001 11.64797,-7.75217 0.38798,-1.54352 0.77684,-3.0927 1.16659,-4.64755 -1.55144,0.0165 -3.10425,0.0398 -4.65843,0.0698 0,0 0,0 0,0 -1.55418,0.03 -3.10698,0.0534 -4.65839,0.0699 -0.12253,-0.009 -0.24595,-0.0126 -0.37026,-0.0104 -0.65715,1.32604 -3.42721,1.98059 -6.58741,3.29654 0,0 -1e-5,0 -1e-5,0 -8.24042,3.35581 -17.3411,5.1319 -26.63342,6.79794 0,0 -2e-5,0 -2e-5,0 -18.38547,3.25507 -37.1108,5.04519 -55.91367,6.47207 -34.93805,2.64717 -70.32056,2.73083 -104.49223,-4.70525 0,0 -1e-5,0 -1e-5,0 -10.14041,-3.13682 -20.34205,-6.35039 -30.604928,-9.64071 -0.337418,-36.28607 -0.8523,-72.81987 -1.54466,-109.60143 z"
                 id="path4973-9-3"
                 inkscape:path-effect="#path-effect4975-0-0-4"
                 inkscape:original-d="m 95.481912,272.18598 0.490209,110.35172 c 0,0 37.375649,23.23351 136.370609,17.17259 98.99495,-6.06091 93.94419,-20.20305 93.94419,-20.20305"
                 inkscape:connector-curvature="0"
                 sodipodi:nodetypes="ccsc" />
            </g>
          </g>
          <g
             id="Fore_Speed_Lines-5-4"
             inkscape:label="#g5209"
             transform="matrix(0.26918179,0,0,0.26918179,67.576886,-17.748903)">
            <path
               sodipodi:nodetypes="cc"
               inkscape:connector-curvature="0"
               inkscape:original-d="M 228.44436,95.906058 C 220.53901,86.170546 125.85534,162.02818 145.41238,336.02497"
               inkscape:path-effect="#path-effect4378-1-0-4"
               id="path4376-5-9-1"
               d="m 228.44436,95.906058 c -0.24776,-0.316908 -0.59942,-0.547569 -0.98218,-0.682721 -0.46836,-0.165344 -0.97445,-0.205405 -1.47072,-0.186126 -1.46991,0.0566 -2.8919,0.558848 -4.24014,1.135508 0,10e-7 -1e-5,5e-6 -1e-5,5e-6 -2.00714,0.855952 -3.90082,1.963371 -5.72261,3.159959 0,0 -10e-6,8e-6 -10e-6,8e-6 -2.41291,1.584199 -4.70585,3.348649 -6.91336,5.207489 -5.93513,4.99763 -11.28688,10.67542 -16.22992,16.6625 0,0 -1e-5,0 -1e-5,0 -6.5067,7.87923 -12.29956,16.35038 -17.47787,25.17568 -13.89102,23.67779 -23.38531,49.87718 -29.24273,76.78551 0,0 -1e-5,1e-5 -1e-5,1e-5 -8.07589,37.09524 -9.29119,75.564 -5.72112,113.41957 l 9.93742,-1.11696 c -4.82911,-36.87099 -5.08925,-74.50785 1.50174,-111.16549 0,0 0,-10e-6 0,-10e-6 4.78204,-26.5925 13.12003,-52.68086 25.96959,-76.54755 4.78883,-8.89616 10.1958,-17.47342 16.34587,-25.50647 0,0 0,-1e-5 0,-1e-5 4.6759,-6.106 9.75671,-11.9187 15.45705,-17.0888 2.11989,-1.92268 4.32411,-3.7535 6.65651,-5.410965 0,10e-7 1e-5,-8e-6 1e-5,-8e-6 1.76287,-1.25221 3.59189,-2.416466 5.5463,-3.336064 0,0 1e-5,-4e-6 1e-5,-4e-6 1.31758,-0.618148 2.69209,-1.167028 4.13887,-1.274816 0.48752,-0.03617 0.98453,-0.01665 1.45105,0.129355 0.38041,0.119014 0.73697,0.332865 0.99627,0.6404 z"
               style="fill:#b3b3b3;fill-opacity:1;stroke:none" />
            <path
               sodipodi:nodetypes="cc"
               inkscape:connector-curvature="0"
               inkscape:original-d="M 285.04828,103.2484 C 273.24554,98.611079 190.41076,204.32798 263.63434,340.86678"
               inkscape:path-effect="#path-effect4378-5-1-4"
               id="path4376-2-0-4"
               d="m 285.04828,103.2484 c -0.40855,-0.16971 -0.86895,-0.19127 -1.31114,-0.13929 -0.58831,0.0688 -1.1583,0.25756 -1.70323,0.489 -1.60593,0.6815 -3.0432,1.71502 -4.40054,2.80564 0,0 0,0 0,0 -4.44668,3.56921 -8.16715,7.98205 -11.60357,12.52736 0,0 -1e-5,0 -1e-5,0 -4.98741,6.59111 -9.30467,13.68769 -13.11752,21.03279 0,0 0,1e-5 0,1e-5 -4.77466,9.19606 -8.74596,18.81981 -11.95302,28.69804 0,0 0,0 0,0 -8.01477,24.68884 -11.18783,50.99353 -9.57786,77.06885 2.10661,33.91804 12.29361,67.16806 27.8466,97.49904 l 8.8127,-4.72612 c -16.1014,-28.69443 -27.27469,-60.42367 -30.56346,-93.26557 -2.53816,-25.2517 -0.46989,-51.08273 6.47639,-75.66699 0,0 1e-5,-2e-5 1e-5,-2e-5 2.77984,-9.83917 6.32427,-19.47802 10.69215,-28.74902 0,0 1e-5,-1e-5 1e-5,-1e-5 3.49068,-7.40734 7.4847,-14.59102 12.17643,-21.31496 0,0 0,-10e-6 0,-10e-6 3.24317,-4.64342 6.74161,-9.14753 11.01673,-12.85705 0,0 10e-6,0 10e-6,0 1.30726,-1.1331 2.6811,-2.20826 4.24374,-2.9428 0.53,-0.24896 1.08304,-0.45725 1.66136,-0.54735 0.43435,-0.0674 0.88941,-0.0653 1.30422,0.0885 z"
               style="fill:#b3b3b3;fill-opacity:1;stroke:none" />
            <path
               inkscape:connector-curvature="0"
               inkscape:original-d="m 340.28572,163.79075 c -37.40333,85.46043 -18.05678,113.1448 -18.05678,113.1448"
               inkscape:path-effect="#path-effect4995-9-8"
               id="path4993-9-2"
               d="m 340.28572,163.79075 c -13.51562,27.61971 -25.85876,56.93645 -26.9775,88.62886 0,0 0,1e-5 0,1e-5 -0.23588,6.59488 0.14688,13.44349 1.95588,20.24907 0,0 0,0 0,0 0.44059,1.65258 1.00851,3.35922 1.77674,5.08167 0,0 0,10e-6 0,10e-6 0.19393,0.43447 0.42078,0.89832 0.68905,1.38703 0,0 0,0 0,0 0,0 10e-6,10e-6 10e-6,10e-6 0.0852,0.14951 0.18313,0.31496 0.29484,0.49578 l 0,0 c 1.03831,-0.66535 2.07722,-1.33174 3.11683,-1.99924 0.36167,-0.23222 0.72342,-0.46453 1.08534,-0.69706 0,0 0.002,-0.001 0.002,-0.001 0,0 0,0 0,0 0,0 0.002,-0.001 0.002,-0.001 0.35193,-0.24684 0.70391,-0.49368 1.05586,-0.74038 1.01169,-0.70915 2.02317,-1.41751 3.03434,-2.12501 0.005,0.0149 0,0.0117 -0.0154,-0.009 -0.12848,-0.18145 -0.26435,-0.40748 -0.41471,-0.67159 -0.59715,-1.04797 -1.1052,-2.24746 -1.58517,-3.54312 0,0 0,-10e-6 0,-10e-6 -1.9882,-5.35555 -2.80331,-11.35081 -3.15245,-17.49559 0,0 0,-1e-5 0,-1e-5 -1.66499,-29.74815 8.0124,-59.89084 19.13225,-88.55911 z"
               style="fill:#b3b3b3;fill-opacity:1;stroke:none" />
          </g>
        </g>
        <g
           style="font-style:normal;font-weight:normal;font-size:15px;line-height:125%;font-family:sans-serif;letter-spacing:0px;word-spacing:0px;fill:#cccccc;fill-opacity:1;stroke:#000000;stroke-width:3.0378902;stroke-linecap:butt;stroke-linejoin:miter;stroke-miterlimit:4;stroke-dasharray:none;stroke-opacity:1"
           id="text3372"
           inkscape:path-effect="#path-effect3395"
           transform="matrix(1.1587977,0,0,2.7078986,-75.789499,-1439.6562)">
          <path
             style="font-style:normal;font-variant:normal;font-weight:normal;font-stretch:normal;font-size:80px;font-family:'Cooper Becker Poster Black';-inkscape-font-specification:'Cooper Becker Poster Black, ';fill:#cccccc;stroke:#000000;stroke-width:1.82273412;stroke-miterlimit:4;stroke-dasharray:none"
             d="m 123.24027,661.98464 c -0.0504,-2.01397 -1.60819,-3.17232 -3.14575,-4.28406 -1.53112,-1.10708 -3.06027,-2.1794 -2.98096,-3.86725 2.90771,-2.16856 7.97862,-0.39374 11.57101,-0.0364 6.01422,1.23448 12.3109,2.16521 17.97514,4.30392 3.68439,2.38068 -5.72495,1.72807 -1.82689,5.0034 2.02624,2.57878 3.40912,6.47988 5.91776,8.96077 4.21486,0.42889 4.71153,-5.52637 6.77748,-7.64415 1.40438,-1.42388 -0.66343,-2.23907 -2.47213,-2.97508 -1.77033,-0.7204 -3.32344,-1.37796 -0.68447,-2.22849 5.59778,0.30517 11.4074,1.45641 16.83693,2.74053 4.51365,1.12643 0.1387,2.3669 -2.06798,2.90887 -3.7475,3.8555 -5.76153,9.41972 -8.64628,14.81903 -4.19369,7.85862 -6.2323,12.35992 -10.45774,19.68863 -1.69206,3.18887 -6.56491,2.80886 -9.88669,1.65205 -4.26177,-2.05215 -5.3495,-6.6086 -7.13283,-10.4999 -1.68312,-4.25809 -2.86183,-9.44736 -4.37015,-13.75412 -3.64993,-1.23018 -4.74407,4.68866 -6.85111,6.84977 -3.29851,4.97504 -6.38361,10.81517 -9.00167,15.86109 -2.17034,2.88381 -7.06339,2.61135 -10.23423,0.89077 -3.00481,-3.41862 -5.049476,-7.64885 -5.614794,-12.0656 -0.575099,-4.32415 -2.398567,-15.32483 -2.892639,-19.62745 1.400797,3.65207 2.168825,7.51351 2.706115,11.38356 -1.853561,-6.62402 -1.803363,-7.45983 -3.69727,-14.07511 1.033775,4.0499 -1.124533,-3.8067 -1.790954,-6.19162 0.141908,-4.26267 -3.948793,-5.73296 -5.276195,-9.13592 -0.521383,-4.82852 5.57565,-5.05218 8.976928,-4.39649 5.815329,1.02346 11.680029,2.34607 17.043909,4.66164 5.44145,2.96586 -3.16543,5.23335 0.42241,9.38986 1.27681,3.21241 2.32371,6.95708 3.86405,10.21265 3.70381,0.82792 4.87244,-4.72535 6.58894,-6.86679 0.25806,-0.51894 0.8016,-1.05668 0.35006,-1.67809 z"
             id="path3377"
             inkscape:original-d="m 122.36129,661.57097 c -0.039,-4.39406 -6.04852,-4.90807 -5.96211,-8.82539 2.87881,-2.82628 7.65418,-1.13848 11.271,-1.0258 5.90934,0.99089 12.03142,1.60962 17.58874,3.92477 3.65121,2.82182 -5.63699,2.58194 -1.81396,6.21731 2.07652,3.06405 3.1076,6.90444 5.67946,9.56678 4.21008,0.3332 4.54379,-5.93519 6.69896,-8.68919 2.79949,-3.5404 -8.13581,-3.59899 -3.04191,-6.27787 5.52122,-0.0689 11.05903,0.96989 16.40824,2.28645 4.49182,1.18709 0.0208,3.11752 -2.04133,3.87571 -3.69429,4.93677 -5.74466,10.88577 -8.51678,16.35889 -3.41006,6.74065 -6.57289,13.6304 -10.34448,20.17594 -1.85721,3.47385 -6.60511,3.02713 -9.72909,1.81092 -3.90337,-2.12821 -4.95463,-6.92811 -6.6631,-10.69579 -1.73198,-4.42851 -2.81649,-9.0785 -4.37793,-13.55646 -3.56835,-1.16337 -4.62797,4.74417 -6.63859,6.87779 -3.27044,5.114 -5.95365,10.56424 -8.8519,15.8795 -2.27642,2.96267 -7.04529,2.64009 -10.0102,0.93751 -2.717944,-3.40093 -4.735569,-7.61239 -5.354434,-11.95094 -0.954469,-6.46649 -2.318684,-12.90271 -2.968448,-19.39677 1.314861,3.59747 2.080284,7.47155 2.651036,11.26098 -1.338121,-4.60231 -2.354503,-9.29815 -3.580293,-13.93358 1.069277,4.57321 -1.164701,-4.32763 -1.636618,-6.16364 0.210238,-4.22912 -3.794534,-5.7128 -5.145441,-8.94494 -0.6174,-4.658 5.070501,-5.48754 8.498694,-5.10765 5.709694,0.53105 11.533924,1.39476 16.857284,3.60581 5.14969,2.80784 -2.67524,6.45957 0.48516,10.39698 1.23927,3.47708 2.11156,7.12185 3.63283,10.47861 3.64218,0.7803 4.78392,-4.86703 6.53704,-7.26644 0.26027,-0.56211 0.80069,-1.16147 0.36817,-1.81949 z"
             inkscape:connector-curvature="0" />
          <path
             style="font-style:normal;font-variant:normal;font-weight:normal;font-stretch:normal;font-size:80px;font-family:'Cooper Becker Poster Black';-inkscape-font-specification:'Cooper Becker Poster Black, ';fill:#cccccc;stroke:#000000;stroke-width:1.82273412;stroke-miterlimit:4;stroke-dasharray:none"
             d="m 180.13662,660.60907 c 6.70735,0.94089 13.40746,1.85235 20.10169,2.73197 5.32882,0.70021 9.21208,1.1585 11.2771,1.37397 0.74749,0.0787 1.66217,0.16023 3.13288,0.29882 0.55185,0.0531 1.00887,0.10381 1.34204,0.14678 1.2771,0.1645 2.50513,0.38618 3.41987,0.70157 1.5895,0.55334 2.36362,1.27039 2.32169,2.57455 -0.0225,0.70576 -0.4569,1.33039 -1.32018,1.73481 -0.73777,0.36496 -1.64921,0.52305 -2.77328,0.42975 -0.91221,-0.0757 -1.60906,-0.24983 -2.10424,-0.51754 -0.42607,-0.22353 -1.00003,-0.67653 -1.78493,-1.32853 -1.2455,-1.00819 -2.99595,-1.65911 -5.15655,-2.10018 -1.59021,-0.33223 -4.08298,-0.67809 -7.37516,-1.02916 -3.04607,-0.32483 -4.96386,-0.3619 -5.72743,-0.0492 -0.47514,0.19341 -0.77145,0.58021 -0.87938,1.23391 -0.059,0.33564 -0.081,1.36751 -0.0704,3.92624 0.006,1.3898 0.18864,2.3443 0.55255,2.69412 0.44422,0.41822 1.85711,0.70989 4.25072,0.87153 1.22263,0.0826 2.05311,-0.0567 2.49646,-0.40543 0.46886,-0.32656 0.76758,-0.90606 0.8973,-1.68947 0.25678,-1.36721 0.53131,-2.08131 0.81617,-2.32587 0.67028,-0.61973 1.59383,-0.84349 2.73319,-0.74407 1.05965,0.0924 1.99716,0.45 2.76932,1.10779 0.62039,0.54073 1.12065,1.49538 1.4793,3.0584 0.30963,1.33082 0.45891,2.76279 0.44642,4.27157 -0.0283,3.4107 -0.71631,6.52531 -2.01278,8.93004 -0.71467,1.29706 -1.78211,1.91719 -3.21179,1.85872 -0.90958,-0.0372 -1.55801,-0.34186 -1.94323,-0.91818 -0.25785,-0.32814 -0.47043,-1.16505 -0.63592,-2.51475 -0.23855,-1.74213 -0.90946,-2.92209 -2.01986,-3.57658 -0.79919,-0.44655 -1.83785,-0.704 -3.11002,-0.7724 -1.29888,-0.0698 -2.17617,0.39262 -2.63163,1.41286 -0.26819,0.6408 -0.41428,1.70011 -0.43334,3.18323 -0.0227,1.74223 0.12711,4.25614 0.52284,7.02086 0.17298,1.26057 0.57832,2.01317 1.18599,2.30246 1.05887,0.50702 3.27103,0.79569 6.62863,0.88172 4.49149,0.11508 7.72105,-0.39916 9.65013,-1.56365 1.50892,-0.91775 2.74333,-2.27516 3.73333,-4.12479 0.72991,-1.34139 1.38564,-2.24041 1.96165,-2.69077 0.60137,-0.44877 1.36913,-0.65075 2.30339,-0.60898 1.09034,0.0488 1.97976,0.51366 2.67457,1.38944 0.72088,0.90073 1.07814,1.97914 1.08456,3.22049 0.0102,1.8617 -0.63206,4.11382 -1.80762,6.51175 -1.13929,2.28663 -2.06723,3.50048 -2.94417,4.01035 -0.39096,0.2396 -0.8853,0.3564 -1.48075,0.35502 -0.56874,-0.001 -1.32198,-0.0504 -2.24883,-0.15008 -1.67552,-0.19919 -3.91926,-0.33595 -6.73542,-0.40111 -11.11466,-0.0546 -21.9662,-0.11211 -33.14744,-0.1733 -1.53914,-0.008 -2.6932,-0.28105 -3.42926,-0.84477 -0.67908,-0.52303 -1.06078,-1.15359 -1.13476,-1.90081 -0.0718,-0.7256 0.16247,-1.30058 0.68388,-1.69991 0.20021,-0.13274 0.78375,-0.39466 1.75455,-0.78822 1.04924,-0.39177 1.72769,-0.94375 2.04362,-1.67057 1.0247,-2.29471 1.82015,-8.31458 1.89326,-16.58372 0.0811,-9.22236 -0.76509,-12.79151 -1.90636,-14.15478 -0.30646,-0.36272 -0.74597,-0.63015 -1.31592,-0.81821 -0.1562,-0.0549 -0.64909,-0.18438 -1.48203,-0.38991 -1.47919,-0.37694 -2.21297,-0.93722 -2.15544,-1.5617 0.0594,-0.64571 0.86195,-0.90364 2.3622,-0.88172 0.89679,0.009 3.02935,0.26454 6.45889,0.74561 0,0 -2e-5,0 -2e-5,0 0,0 -2e-5,-10e-6 -2e-5,-10e-6 z"
             id="path3379"
             inkscape:original-d="m 177.88301,655.97337 c 6.55747,0.73002 13.03344,1.45211 19.56809,2.17183 5.20899,0.57372 8.93264,0.9264 10.96559,1.07407 0.73675,0.0547 1.60557,0.0959 3.04513,0.17883 0.53644,0.0326 0.98039,0.0707 1.30426,0.10815 1.24434,0.14357 2.43089,0.38455 3.32223,0.80048 1.54263,0.72817 2.29257,1.78226 2.24159,3.60812 -0.0272,0.98029 -0.45457,1.82577 -1.29722,2.395 -0.71865,0.51023 -1.60965,0.75563 -2.70063,0.69799 -0.88603,-0.0468 -1.56394,-0.2283 -2.0428,-0.5404 -0.40967,-0.25836 -0.97036,-0.80594 -1.72544,-1.6141 -1.20956,-1.25936 -2.89446,-2.04513 -4.99964,-2.50674 -1.54726,-0.34995 -3.96491,-0.65152 -7.16915,-0.89418 -2.96372,-0.22445 -4.82778,-0.12468 -5.5751,0.35719 -0.46441,0.29783 -0.7558,0.84176 -0.86737,1.69704 -0.0589,0.42607 -0.0944,1.81059 -0.10529,4.81282 -0.006,1.61581 0.1671,2.66867 0.51966,3.04395 0.42967,0.44755 1.80611,0.71633 4.13552,0.80477 1.18987,0.0452 1.99974,-0.14023 2.43281,-0.54808 0.45803,-0.3843 0.75221,-1.04891 0.88371,-1.96026 0.26033,-1.59966 0.53273,-2.48856 0.81281,-2.80338 0.66015,-0.796 1.55682,-1.13389 2.66709,-1.0724 1.03311,0.0572 1.93726,0.45826 2.68579,1.23246 0.60077,0.63662 1.07677,1.77976 1.41787,3.57482 0.29355,1.52281 0.43333,3.11385 0.41868,4.7492 -0.0331,3.68641 -0.69255,6.91879 -1.95387,9.44525 -0.69519,1.36285 -1.73492,2.03077 -3.12526,2.00032 -0.88463,-0.0194 -1.5146,-0.3222 -1.88901,-0.91018 -0.25042,-0.33364 -0.45736,-1.1948 -0.62022,-2.58321 -0.23446,-1.79157 -0.89052,-3.00051 -1.9717,-3.6507 -0.7789,-0.44292 -1.78948,-0.6821 -3.02846,-0.71771 -1.26472,-0.0363 -2.11816,0.47034 -2.55953,1.53529 -0.26001,0.66893 -0.39898,1.76085 -0.41453,3.28156 -0.0189,1.8135 0.1329,4.32581 0.4905,7.24705 0.15478,1.32386 0.53233,2.12562 1.11785,2.42781 1.01912,0.52915 3.16315,0.81277 6.42602,0.85929 4.37086,0.0623 7.51325,-0.55057 9.41662,-1.851 1.48286,-1.02053 2.70147,-2.50381 3.67208,-4.47284 0.71503,-1.42727 1.35412,-2.38297 1.91407,-2.86726 0.58488,-0.48343 1.33154,-0.7131 2.23956,-0.69108 1.05942,0.0257 1.92465,0.49246 2.59787,1.39914 0.69852,0.93239 1.04265,2.06517 1.03896,3.39242 -0.005,1.99055 -0.65795,4.45013 -1.89322,7.23782 -1.20449,2.67808 -2.20691,4.22731 -3.10697,4.88158 -0.40188,0.30704 -0.89289,0.45851 -1.47237,0.45783 -0.55388,-6.4e-4 -1.28019,-0.0624 -2.17335,-0.1872 -1.61173,-0.24959 -3.78176,-0.41299 -6.51551,-0.48416 -10.82101,-0.0301 -21.34093,-0.0611 -32.22865,-0.0932 -1.49806,-0.004 -2.5948,-0.31415 -3.27198,-0.94475 -0.62393,-0.58452 -0.95634,-1.282 -0.99183,-2.09742 -0.0344,-0.7916 0.21417,-1.41123 0.73551,-1.84515 0.19936,-0.14446 0.7761,-0.4315 1.73218,-0.86255 1.03233,-0.43011 1.70684,-1.02547 2.02795,-1.79359 1.09126,-2.54416 1.78846,-8.4755 1.85648,-16.98953 0.0766,-9.63743 -0.62298,-14.25345 -1.75833,-16.02228 -0.29619,-0.45698 -0.72211,-0.78303 -1.27679,-0.9923 -0.15167,-0.0618 -0.63169,-0.19818 -1.44215,-0.41022 -1.43996,-0.39297 -2.1519,-1.09069 -2.09717,-1.98141 0.0568,-0.92559 0.83402,-1.3994 2.29482,-1.52768 0.86879,-0.0818 2.95501,0.0714 6.29228,0.4429 l -2e-5,0 z"
             inkscape:connector-curvature="0"
             sodipodi:nodetypes="csccccccccccsccccsccccccscsccccccccscccccccccccccccccccccccccc" />
          <path
             style="font-style:normal;font-variant:normal;font-weight:normal;font-stretch:normal;font-size:80px;font-family:'Cooper Becker Poster Black';-inkscape-font-specification:'Cooper Becker Poster Black, ';fill:#cccccc;stroke:#000000;stroke-width:1.82273412;stroke-miterlimit:4;stroke-dasharray:none"
             d="m 248.16879,701.48098 c -1.70533,4.7e-4 -3.48318,2.2e-4 -5.18962,9.2e-4 -3.70035,-2.6e-4 -6.34315,0.0334 -7.96498,0.10299 -1.48576,0.0698 -2.59054,0.10413 -3.31546,0.10181 -1.49415,-0.004 -2.77573,-0.24069 -3.79005,-0.74882 -0.99406,-0.51078 -1.54101,-1.14892 -1.62625,-1.93764 -0.0615,-0.56874 0.19154,-1.10137 0.7527,-1.58013 0.17404,-0.13563 0.82986,-0.49123 1.99151,-1.09493 0.52847,-0.29236 0.91123,-0.68257 1.15143,-1.17992 0.26547,-0.51792 0.48356,-1.37185 0.67365,-2.60993 0.83588,-4.93086 1.3685,-13.02935 1.43784,-20.3924 0.0163,-1.72305 -0.24715,-2.52953 -0.80103,-2.96084 -0.35257,-0.29576 -1.19941,-0.58384 -2.53942,-0.88636 -1.70005,-0.38441 -2.53722,-0.77634 -2.48987,-1.07493 0.033,-0.20796 0.52475,-0.30331 1.4716,-0.30143 0.95261,-0.002 2.38728,0.13257 4.15583,0.33812 0.87829,0.10202 1.97648,0.2326 3.42166,0.40389 2.41852,0.2865 4.95142,0.57356 7.66097,0.86911 1.34951,0.14721 5.50685,0.59373 11.22001,1.17803 1.90506,0.19502 3.57217,0.36381 5.05927,0.51279 2.80532,0.28102 9.41586,0.92268 10.08519,0.99292 2.75354,0.2889 4.78428,0.5644 5.95258,1.1157 0.79589,0.37732 1.18212,0.87046 1.15607,1.5663 -0.0264,0.70554 -0.48773,1.52673 -1.38849,2.411 -0.77305,0.77244 -1.72265,1.46628 -2.87728,2.00167 -0.94096,0.44523 -1.4146,0.867 -1.42099,1.24111 -0.008,0.44616 0.54229,0.87228 1.64943,1.26361 2.13922,0.74208 4.03159,1.87709 5.68987,3.49829 1.76016,1.74824 2.61659,3.8502 2.60762,6.24566 -0.0126,3.25161 -1.32034,5.85714 -3.89277,7.81201 -3.29599,2.49564 -8.53264,3.42067 -15.36203,3.40332 -0.82221,-0.002 -3.27093,-0.0473 -7.18089,-0.14229 -3.73428,-0.0956 -5.77934,-0.14751 -6.2981,-0.14958 0,0 0,-5e-5 0,-5e-5 z m 2.26646,-29.93037 c -0.0318,0.95412 -0.0504,2.3261 -0.0705,3.918 -0.0118,0.90209 0.20088,1.57775 0.63725,1.92267 0.28287,0.24782 0.79803,0.39588 1.55019,0.44036 1.74064,0.10293 3.01776,-0.1221 3.85943,-0.6343 1.17832,-0.71025 1.77613,-1.93243 1.80249,-3.29467 0.0281,-1.43874 -0.64427,-2.15811 -2.02333,-2.63807 -0.87951,-0.30044 -2.00501,-0.49662 -3.28762,-0.6075 -0.69806,-0.0603 -1.26529,-0.0634 -1.6844,10e-4 -0.50035,0.0725 -0.76487,0.32635 -0.78357,0.89251 0,0 5e-5,0 5e-5,0 z m -0.21383,14.88909 c -0.0112,1.04995 -0.0199,2.13748 -0.0234,3.18582 -0.0101,3.41048 0.38893,5.30635 1.09328,6.04124 0.5388,0.58704 1.47667,0.88229 2.79477,0.90956 3.91291,0.081 5.75361,-1.5127 5.74395,-5.33413 -0.008,-2.99739 -0.76575,-5.07917 -2.36353,-6.23961 -1.12712,-0.80802 -2.5239,-1.24778 -4.17912,-1.32583 -0.95788,-0.0451 -1.68549,0.0707 -2.18139,0.35195 -0.57434,0.34278 -0.87096,1.1385 -0.88463,2.411 0,0 5e-5,0 5e-5,0 z"
             id="path3381"
             inkscape:original-d="m 243.59244,701.15833 c -1.68175,0.006 -3.36358,0.011 -5.04649,0.0173 -3.59494,0.0111 -6.17445,0.0642 -7.75431,0.16042 -1.45076,0.0963 -2.5286,0.14422 -3.23323,0.14296 -1.45597,-0.002 -2.67418,-0.31157 -3.62381,-0.95535 -0.92728,-0.6456 -1.41536,-1.43575 -1.45629,-2.38414 -0.0295,-0.68373 0.23974,-1.31308 0.8037,-1.87694 0.17311,-0.15872 0.82695,-0.58273 1.97328,-1.28796 0.52255,-0.34141 0.90552,-0.791 1.1507,-1.35372 0.27011,-0.58598 0.50028,-1.54385 0.70042,-2.89674 0.86191,-5.31689 1.35014,-13.62818 1.45982,-22.52728 0.0271,-2.19146 -0.22262,-3.31204 -0.75814,-3.88274 -0.34072,-0.39309 -1.16141,-0.74921 -2.46179,-1.09319 -1.64953,-0.4372 -2.46091,-0.94982 -2.41322,-1.40732 0.0332,-0.31819 0.51141,-0.50725 1.4314,-0.58311 0.92751,-0.0824 2.31691,0.008 4.03596,0.18597 0.84129,0.087 1.93037,0.20491 3.3218,0.35659 2.35149,0.2561 4.80235,0.5069 7.43549,0.7641 1.41459,0.13818 5.23888,0.50095 10.88543,1.02283 1.889,0.17488 3.42343,0.31662 4.90675,0.45247 3.31127,0.30325 8.53931,0.7641 9.77835,0.89275 2.6775,0.27797 4.62881,0.58302 5.76795,1.33319 0.77031,0.50985 1.14311,1.20006 1.11539,2.14991 -0.0281,0.96291 -0.47806,2.05364 -1.35415,3.19111 -0.75157,0.99268 -1.67477,1.85929 -2.79553,2.53075 -0.91364,0.55794 -1.37383,1.06398 -1.38061,1.49736 -0.008,0.51674 0.52485,0.98845 1.59836,1.40401 2.07288,0.78641 3.90999,2.02485 5.51547,3.78727 1.70436,1.90146 2.5348,4.19542 2.51219,6.8635 -0.0311,3.61692 -1.34175,6.72135 -3.91296,9.22925 -3.35394,3.25994 -8.42489,4.64378 -15.11883,4.6343 -0.81331,-10e-4 -3.16287,-0.0599 -6.97107,-0.18111 -3.60968,-0.12162 -5.62146,-0.18521 -6.11203,-0.18637 z m 2.60326,-34.68553 c -0.036,1.30237 -0.0623,3.11604 -0.0877,5.02304 -0.0149,1.08897 0.1897,1.86795 0.6125,2.25367 0.27376,0.27796 0.77411,0.43125 1.50403,0.45703 1.68833,0.0596 2.93137,-0.2422 3.74837,-0.8745 1.14561,-0.8786 1.72992,-2.36184 1.76162,-4.11813 0.034,-1.87013 -0.61484,-2.85747 -1.95067,-3.46262 -0.85407,-0.37881 -1.94124,-0.59636 -3.18762,-0.67952 -0.67764,-0.0452 -1.22738,-0.0148 -1.63497,0.10306 -0.48616,0.13426 -0.7442,0.51632 -0.76561,1.29798 z m -0.24346,17.28988 c -0.0125,1.12484 -0.0238,2.30623 -0.0326,3.43781 -0.0274,3.69148 0.31765,5.87334 0.98302,6.71481 0.50967,0.67422 1.40946,1.01268 2.68984,1.02855 3.79418,0.0471 5.64448,-1.90974 5.66601,-6.15554 0.0166,-3.29012 -0.72549,-5.52762 -2.27157,-6.74719 -1.09367,-0.85119 -2.44832,-1.29502 -4.05556,-1.33783 -0.92991,-0.0247 -1.6363,0.11994 -2.11796,0.43709 -0.55803,0.38587 -0.84597,1.25312 -0.86123,2.6223 z"
             inkscape:connector-curvature="0"
             sodipodi:nodetypes="ccccccccccsccscccsccccsccccccccccccccccccccccccccsccccc" />
          <path
             style="font-style:normal;font-variant:normal;font-weight:normal;font-stretch:normal;font-size:80px;font-family:'Cooper Becker Poster Black';-inkscape-font-specification:'Cooper Becker Poster Black, ';fill:#cccccc;stroke:#000000;stroke-width:1.82273412;stroke-miterlimit:4;stroke-dasharray:none"
             d="m 300.56447,673.81556 c 8.02227,0.5786 11.90252,0.51405 11.85878,0.62268 -0.0198,0.0492 -0.36119,0.12193 -1.02512,0.21195 -0.22699,0.0325 -0.88113,0.0677 -2.04782,0.1467 -0.89061,0.061 -1.47053,0.16088 -1.74015,0.30564 -0.43255,0.24242 -0.67711,0.83362 -0.73138,2.48631 -0.0277,0.84153 0.29248,1.47438 0.9583,1.73484 0.51394,0.19649 1.2588,0.32297 2.2429,0.37518 1.96421,0.0893 3.71363,0.15999 5.23834,0.21363 2.69051,0.0947 4.36214,0.0516 5.01477,-0.1137 0.57375,-0.13899 0.849,-0.63045 0.82303,-1.35638 0.001,-0.0352 0.0102,-0.27407 0.0198,-0.53482 0.006,-2.04654 -0.71379,-2.47914 -2.15155,-2.64438 -0.98246,-0.15071 -1.59215,-0.24263 -1.8802,-0.29898 -0.58437,-0.11432 -0.86863,-0.21767 -0.85087,-0.27974 0.0299,-0.10407 0.75767,-0.0491 2.1797,0.0882 2.04625,0.19579 6.03403,0.54724 12.54393,0.84952 4.10537,0.19062 7.20009,0.25043 9.87027,0.25261 1.57987,0.005 2.46612,-0.0493 3.336,-0.0728 0.35304,-0.0105 0.52232,-0.016 0.50857,0.0112 -0.0291,0.0574 -0.84816,0.1907 -2.47034,0.26674 -1.09743,0.0502 -1.77944,0.12355 -2.04766,0.21882 -0.53226,0.17863 -0.88613,0.61389 -1.04745,1.86795 -0.35682,2.69954 -0.6073,7.28467 -0.67241,10.64619 -0.0761,3.93661 0.11828,6.21951 0.511,7.20698 0.23412,0.59555 0.58707,0.99723 1.05307,1.23066 0.0692,0.0443 0.77217,0.32567 2.0584,0.78419 0.98419,0.33469 1.48089,0.82764 1.49831,1.42935 0.029,0.99973 -0.96394,1.60479 -2.98926,1.97492 -2.29271,0.4179 -6.25062,0.60656 -11.67097,0.60376 -8.66541,-0.005 -13.15658,-0.63117 -13.26883,-2.50549 -0.0492,-0.82074 0.68663,-1.53266 2.19216,-2.04592 0.96968,-0.3371 1.59133,-0.77777 1.86666,-1.33932 0.72394,-1.46989 1.09763,-3.74043 1.144,-6.86282 0.0193,-1.30473 -0.19595,-2.1364 -0.65407,-2.52057 -0.38107,-0.32289 -1.58023,-0.50801 -3.59571,-0.56101 -4.88815,-0.12862 -7.92177,-0.0159 -9.12187,0.37001 -0.3901,0.12848 -0.6682,0.49025 -0.83272,1.09329 -0.21891,0.87811 -0.3482,2.36786 -0.35505,4.37866 -0.006,1.95143 0.43788,3.3249 1.30941,4.22848 0.28984,0.3063 0.98388,0.68543 2.0798,1.11884 1.09708,0.41726 1.65874,1.08292 1.70813,1.91189 0.062,1.04034 -1.02759,1.66651 -3.29305,2.04054 -2.70064,0.46079 -6.39903,0.67303 -10.87701,0.66824 -9.31954,-0.0103 -14.21581,-0.73791 -14.38768,-2.86917 -0.0445,-0.55084 0.29761,-1.07393 1.02172,-1.54648 0.20081,-0.136 0.90688,-0.4093 2.13045,-0.83748 0.73922,-0.2386 1.24478,-0.55605 1.51784,-0.96063 0.29907,-0.40434 0.51472,-1.10653 0.65978,-2.15649 0.3616,-2.27106 0.58973,-5.58671 0.65645,-9.37048 0.0126,-0.71357 0.0151,-1.54372 0.007,-2.44579 -0.0229,-4.24139 -0.0348,-5.42092 -0.0136,-6.09385 0.0373,-1.19188 -0.30942,-1.67415 -1.0494,-1.90539 -0.38141,-0.11942 -1.24374,-0.30263 -2.57838,-0.53454 -1.12977,-0.19544 -1.68532,-0.41344 -1.65833,-0.57878 0.0247,-0.15192 0.59588,-0.19646 1.71202,-0.14753 1.63324,0.0719 4.80403,0.38009 9.57235,0.78845 1.9792,0.16946 3.82528,0.31968 5.71772,0.45617 0,0 3e-5,10e-6 3e-5,10e-6 0,0 -1e-4,-4e-5 -1e-4,-4e-5 z"
             id="path3383"
             inkscape:original-d="m 294.79518,667.26179 c 7.77107,0.52706 11.52488,0.31602 11.48401,0.47123 -0.0192,0.0729 -0.34979,0.19127 -0.99274,0.34425 -0.21842,0.0544 -0.85467,0.12837 -1.98317,0.28092 -0.86254,0.11756 -1.42425,0.27965 -1.68555,0.49193 -0.41964,0.35522 -0.65629,1.20552 -0.71112,3.34274 -0.0276,1.07436 0.28194,1.84076 0.92682,2.14374 0.49741,0.22812 1.21955,0.36459 2.17248,0.40574 1.90337,0.064 3.59638,0.112 5.07383,0.14509 2.60621,0.0584 4.22431,-0.0264 4.85672,-0.24279 0.5557,-0.1824 0.82219,-0.79116 0.79721,-1.71302 10e-4,-0.0438 0.01,-0.35002 0.0193,-0.68668 0.006,-2.69936 -0.69088,-3.33413 -2.08269,-3.52782 -0.95026,-0.18622 -1.54232,-0.30042 -1.8203,-0.37265 -0.56574,-0.147 -0.84097,-0.28825 -0.82375,-0.37978 0.029,-0.15357 0.73351,-0.0968 2.11028,0.0597 2.02743,0.22779 5.79528,0.60576 12.14287,0.88478 3.98122,0.175 6.96119,0.19679 9.5527,0.14752 1.53725,-0.0243 2.37795,-0.11794 3.22804,-0.16849 0.34159,-0.0217 0.50539,-0.0327 0.49213,0.007 -0.0283,0.0847 -0.82007,0.29087 -2.38997,0.42976 -1.06175,0.0921 -1.72196,0.20985 -1.98124,0.34931 -0.51642,0.26301 -0.85508,0.8914 -1.0116,2.55415 -0.34187,3.53408 -0.58311,8.92432 -0.64774,12.68346 -0.0768,4.47433 0.0952,7.27746 0.46688,8.50704 0.22198,0.74315 0.55924,1.25705 1.00875,1.55632 0.0705,0.0602 0.7412,0.41192 1.98684,1.01602 0.95021,0.43929 1.42596,1.09835 1.4327,1.94208 0.0113,1.4085 -0.96853,2.34209 -2.94756,2.9234 -2.25617,0.66099 -6.08088,0.97241 -11.36698,0.97258 -8.43504,1.4e-4 -12.74544,-1.04759 -12.79734,-3.67172 -0.0224,-1.13067 0.70709,-2.06245 2.17738,-2.73287 0.94713,-0.44018 1.55734,-1.00518 1.83211,-1.7045 0.72314,-1.83246 1.10283,-4.5407 1.15446,-8.07644 0.0216,-1.48261 -0.18661,-2.42333 -0.62985,-2.8531 -0.36888,-0.36145 -1.53022,-0.55517 -3.4826,-0.58537 -4.73297,-0.0733 -7.67666,0.10681 -8.83781,0.56049 -0.37813,0.15115 -0.64803,0.56326 -0.80849,1.24426 -0.21456,0.9955 -0.34089,2.6599 -0.36049,4.96912 -0.0186,2.24244 0.39312,3.89594 1.22286,5.0034 0.27612,0.37584 0.94191,0.84113 1.99619,1.38432 1.05512,0.52229 1.58628,1.37519 1.60833,2.50136 0.0278,1.42118 -1.06045,2.35466 -3.28111,2.9208 -2.66631,0.70203 -6.24219,1.03645 -10.61371,1.03479 -9.07427,-0.004 -13.74796,-1.1502 -13.82845,-3.97627 -0.0206,-0.722 0.32915,-1.39018 1.04593,-1.98879 0.19819,-0.17157 0.89298,-0.52136 2.0901,-1.05976 0.72321,-0.30081 1.22079,-0.69399 1.49363,-1.18406 0.29797,-0.48989 0.51989,-1.33256 0.67311,-2.55259 0.38021,-2.65626 0.61008,-6.30633 0.67774,-10.53387 0.0128,-0.80153 0.0158,-1.73703 0.009,-2.77216 -0.0188,-4.89515 -0.0253,-6.54424 -0.004,-7.394 0.0393,-1.57673 -0.29599,-2.25149 -1.01226,-2.54629 -0.36883,-0.15213 -1.20506,-0.37531 -2.49746,-0.64788 -1.09439,-0.22955 -1.63233,-0.51883 -1.60565,-0.76434 0.0244,-0.22532 0.57807,-0.32114 1.65966,-0.30302 1.5699,0.0267 4.66743,0.33322 9.27355,0.72828 1.9219,0.16478 3.70045,0.3081 5.53809,0.43273 l 3e-5,10e-6 z"
             inkscape:connector-curvature="0"
             sodipodi:nodetypes="cccccsccccccccccsccccccscccsccsccscccccccscccccccscscccccccc" />
          <path
             style="font-style:normal;font-variant:normal;font-weight:normal;font-stretch:normal;font-size:80px;font-family:'Cooper Becker Poster Black';-inkscape-font-specification:'Cooper Becker Poster Black, ';fill:#cccccc;stroke:#000000;stroke-width:1.82273412;stroke-miterlimit:4;stroke-dasharray:none"
             d="m 396.6488,684.30413 c 3.05882,4.64128 3.88406,6.66161 6.98005,11.35014 0.74168,1.06319 1.38502,1.69512 1.91461,1.97742 0.37971,0.20471 1.00766,0.34152 1.88133,0.41448 1.85019,0.16091 2.759,0.72892 2.71845,1.58389 -0.0329,0.69415 -0.69419,1.20466 -1.97706,1.58638 -1.90782,0.57469 -6.11782,0.81629 -12.4402,0.8207 -8.3271,0.006 -13.43326,-0.16686 -15.17379,-0.56144 -1.38146,-0.32652 -2.07245,-0.78587 -2.06638,-1.44361 0.004,-0.43989 0.31685,-0.83233 0.93868,-1.15042 0.25933,-0.13028 0.89163,-0.29839 1.89954,-0.50967 1.21423,-0.25646 1.82671,-0.66241 1.83691,-1.249 0.0198,-1.12044 -1.01128,-1.84004 -3.09784,-2.05373 -2.24596,-0.21404 -5.40929,-0.32298 -9.51693,-0.33185 -3.40869,-0.008 -5.44408,0.1292 -6.12053,0.41356 -0.31204,0.14214 -0.6359,0.41656 -0.97546,0.81454 -0.39072,0.44871 -0.58698,0.92005 -0.58862,1.40412 -0.001,0.40265 0.24341,0.66506 0.73257,0.80404 0.12711,0.0457 0.72263,0.1632 1.7765,0.34406 1.57085,0.27175 2.35366,0.81322 2.35741,1.52975 0.008,1.48647 -3.6541,2.0029 -10.99676,2.00273 -4.08192,1.4e-4 -7.15292,-0.109 -9.12733,-0.3475 -1.80581,-0.20876 -2.7398,-0.68709 -2.77296,-1.60621 -0.02,-0.5505 0.39434,-1.00463 1.23763,-1.31058 0.30661,-0.11665 0.79343,-0.24136 1.46085,-0.37468 1.59107,-0.326 2.74673,-0.74126 3.46619,-1.26258 0.97244,-0.7335 2.26685,-2.27754 4.06359,-5.06922 1.89658,-3.0035 3.74409,-6.02477 5.68469,-8.63011 2.93787,-3.93632 4.5081,-5.1474 4.89344,-5.78933 0.36828,-0.45041 0.56544,-0.78463 0.59099,-1.0155 0.0961,-0.41844 0.33473,-0.40194 0.70567,-0.37977 0.70748,0.0393 2.05476,0.22078 3.81001,0.3857 1.50226,0.13845 2.91279,0.23153 4.51177,0.24085 2.94977,0.0172 4.71842,-0.24214 7.47469,-0.45405 1.57854,-0.11963 3.75689,-0.29757 6.00575,0.50479 2.40667,0.85866 4.87271,2.74694 7.91254,7.3621 z m -27.11819,3.51482 c 2.53307,0.0102 5.06613,0.0158 7.59966,0.0185 1.39599,0.001 2.1003,-0.21901 2.11346,-0.65279 0.0133,-0.44367 -0.46254,-1.36523 -1.4265,-2.62322 -1.42381,-1.91121 -2.49224,-2.93878 -3.16319,-3.37608 -0.49852,-0.35453 -1.05301,-0.52323 -1.64544,-0.52551 -0.79316,-0.002 -1.58452,0.43155 -2.31589,1.44105 -1.94553,2.6683 -2.91956,4.77923 -2.92661,5.02786 -0.0128,0.4532 0.5756,0.6858 1.76451,0.69054 0,0 0,-3.6e-4 0,-3.6e-4 z"
             id="path3385"
             inkscape:original-d="m 387.81478,679.52192 c 2.20832,4.05676 4.5375,8.98646 6.80027,13.34813 0.72867,1.33048 1.35509,2.15844 1.87377,2.53265 0.37069,0.27046 0.98082,0.45436 1.82928,0.55428 1.7966,0.2201 2.68504,0.97592 2.66179,2.18399 -0.019,0.98702 -0.64856,1.75668 -1.88563,2.34837 -1.85263,0.89719 -5.91132,1.3028 -12.07262,1.30853 -8.10747,0.008 -13.05108,-0.28292 -14.75433,-0.91567 -1.34347,-0.52032 -2.01489,-1.23546 -2.00988,-2.19641 0.003,-0.64143 0.3064,-1.19257 0.90902,-1.6324 0.25116,-0.18002 0.86455,-0.41139 1.84136,-0.69755 1.17702,-0.34742 1.76944,-0.89271 1.77764,-1.65494 0.0159,-1.4475 -0.98481,-2.33135 -3.00668,-2.59439 -2.17381,-0.26316 -5.24352,-0.39489 -9.2204,-0.39869 -3.30097,-0.004 -5.27566,0.16966 -5.93024,0.52146 -0.30213,0.17588 -0.6173,0.5161 -0.94689,1.01621 -0.37974,0.56466 -0.57149,1.16638 -0.57498,1.7985 -0.003,0.52632 0.23313,0.877 0.70691,1.06254 0.12382,0.0614 0.69928,0.21713 1.72145,0.46144 1.52225,0.36679 2.28023,1.10584 2.28018,2.14747 2e-4,2.20766 -3.56447,3.10499 -10.70572,3.10789 -3.97474,0.002 -6.94617,-0.17793 -8.86485,-0.55865 -1.75064,-0.33234 -2.64315,-1.09508 -2.65805,-2.43353 -0.009,-0.79622 0.3998,-1.4243 1.22204,-1.84523 0.299,-0.16042 0.77289,-0.33148 1.42183,-0.51353 1.54742,-0.44509 2.67157,-1.00128 3.37329,-1.67846 0.94676,-0.9507 2.21458,-2.93365 3.95666,-6.21703 1.80578,-3.46861 3.66015,-7.00274 5.50082,-10.04226 2.76612,-4.55858 4.4251,-6.58746 4.72432,-7.29433 0.35499,-0.61549 0.54467,-1.08795 0.56855,-1.41613 0.0922,-0.60014 0.32168,-0.57979 0.68134,-0.55016 0.6758,0.0514 1.99758,0.30662 3.6876,0.53193 1.45389,0.18997 2.81911,0.3157 4.3661,0.32469 2.87336,0.0167 4.54477,-0.34876 7.22972,-0.65392 1.5537,-0.17404 3.60614,-0.41807 5.81328,0.7333 2.34101,1.2212 4.7208,3.86699 7.68305,9.3119 z m -26.24347,4.06104 c 2.45231,0.005 4.90416,0.007 7.35687,0.008 1.35139,2e-5 2.03285,-0.25378 2.04488,-0.75464 0.0122,-0.51479 -0.45001,-1.57276 -1.38525,-3.04699 -1.38412,-2.24407 -2.41545,-3.50202 -3.06831,-4.04157 -0.48395,-0.43644 -1.0196,-0.64597 -1.59361,-0.64723 -0.77007,-0.001 -1.52985,0.54688 -2.23819,1.77541 -1.87854,3.23733 -2.81806,5.60109 -2.82525,5.91611 -0.0119,0.52292 0.5579,0.789 1.70886,0.79132 z"
             inkscape:connector-curvature="0"
             sodipodi:nodetypes="ccccccccccccccccccccccccccccccccccsccccccccscc" />
          <path
             style="font-style:normal;font-variant:normal;font-weight:normal;font-stretch:normal;font-size:80px;font-family:'Cooper Becker Poster Black';-inkscape-font-specification:'Cooper Becker Poster Black, ';fill:#cccccc;stroke:#000000;stroke-width:1.82273412;stroke-miterlimit:4;stroke-dasharray:none"
             d="m 450.40235,691.36881 c -1.68213,2.79602 -3.27855,5.30493 -5.00724,7.40634 -0.84149,1.01946 -1.57799,1.63214 -2.14669,1.95669 -0.49112,0.27693 -1.04185,0.40781 -1.63098,0.41011 -0.56441,0.002 -1.05709,-0.11296 -1.46638,-0.35753 -0.1904,-0.10845 -0.51735,-0.38409 -0.9627,-0.85402 -1.35459,-1.47584 -2.46722,-3.03357 -3.20156,-4.2149 -1.5631,-2.58436 -3.24326,-5.74365 -4.81892,-8.5591 -0.65294,-1.19265 -1.38341,-1.75204 -2.18507,-1.73385 -0.64749,0.0148 -1.07666,0.3505 -1.28332,1.02472 -0.2787,0.89158 -0.46022,3.20047 -0.5929,7.11612 -0.0638,1.88447 0.0181,3.02937 0.24943,3.62359 0.18648,0.44561 0.62086,0.7985 1.30305,1.07212 0.19728,0.0586 0.5771,0.18431 1.71168,0.53449 0.86206,0.24715 1.27426,0.68074 1.23022,1.24409 -0.11397,1.45847 -3.93013,1.97455 -11.3328,1.98314 -6.15929,0.007 -9.18353,-0.48146 -9.1097,-1.85004 0.0223,-0.41253 0.37337,-0.76898 1.05603,-1.04406 0.1918,-0.0756 0.84117,-0.25811 1.99781,-0.58246 0.8614,-0.24527 1.44288,-0.56399 1.74266,-0.9677 0.32573,-0.41933 0.61673,-1.24721 0.86756,-2.60796 0.23544,-1.20238 0.47225,-3.33866 0.84667,-7.08971 0.3425,-3.40682 0.62434,-6.60696 0.73567,-8.33373 0.13061,-2.02545 -0.11279,-2.72588 -0.73007,-3.04885 -0.2449,-0.12454 -0.58844,-0.19947 -1.02253,-0.24217 -0.22233,-0.0203 -0.72695,-0.0555 -1.46468,-0.0927 -1.80134,-0.0823 -2.69239,-0.19208 -2.67763,-0.22961 0.0139,-0.0354 0.84838,0.0263 2.50791,0.0755 0.93319,0.0258 2.48931,0.0355 4.66679,0.007 2.46804,-0.0308 4.45453,-0.0771 6.14708,-0.14779 3.24092,-0.13547 5.51273,-0.29341 6.94313,-0.433 0.65642,-0.0616 1.17001,-0.12623 1.56696,-0.18408 0.30433,-0.0408 1.00455,-0.16541 1.71565,-0.17299 2.67169,-0.0313 5.21738,1.27353 7.73506,3.69787 0.90294,0.86527 1.41715,1.40585 1.72352,1.56516 0.4035,0.20113 0.8619,0.29567 1.38246,0.27683 0.95329,-0.0345 1.88379,-0.63716 2.90606,-1.66951 1.97817,-2.00308 3.92279,-3.43344 5.85689,-4.28544 0.71234,-0.32048 1.2691,-0.48589 1.37974,-0.52053 1.25505,-0.37495 2.62085,-0.3903 3.80334,-0.42684 1.80939,-0.0576 4.24415,-0.16375 8.57118,-0.50749 7.42075,-0.58943 11.21663,-1.16588 11.197,-0.87636 -0.004,0.0703 -0.22247,0.17885 -0.65108,0.31513 -0.1654,0.0593 -0.688,0.17414 -1.59387,0.37058 -1.2443,0.2721 -2.04075,0.62388 -2.38377,1.19612 -0.72475,1.21601 -1.22444,3.26739 -1.42417,6.82725 -0.26767,4.77121 -0.065,9.97447 0.3942,13.66203 0.1043,1.0259 0.43648,1.7193 1.0044,2.13886 0.14402,0.12 0.81532,0.45404 1.98937,0.96412 0.90063,0.39581 1.32148,0.92641 1.25307,1.54749 -0.11912,1.08142 -1.43644,1.7349 -3.90336,2.1055 -1.29835,0.20375 -2.64794,0.33089 -4.02349,0.39232 -1.38015,0.0616 -3.53974,0.0943 -6.48004,0.10033 -5.35787,0.0111 -9.04966,-0.19269 -10.91073,-0.64235 -1.34441,-0.3284 -1.98179,-0.79038 -1.91758,-1.44878 0.0425,-0.43524 0.42728,-0.8721 1.15763,-1.30284 0.17775,-0.12111 0.78056,-0.42072 1.89213,-0.99506 0.93692,-0.49751 1.50042,-1.44546 1.67263,-2.99012 0.24491,-2.06693 0.38888,-3.98177 0.43559,-5.26872 0.0577,-1.58576 0.0194,-2.62027 -0.11562,-3.11425 -0.18405,-0.57452 -0.60068,-0.84494 -1.24932,-0.82348 -0.64809,0.0214 -1.24503,0.30566 -1.7848,0.86009 -0.85787,0.83043 -1.95482,2.45302 -3.57157,5.14478 0,0 0,-4e-5 0,-4e-5 z"
             id="path3387"
             inkscape:original-d="m 439.90231,688.1379 c -1.57723,3.11808 -3.15127,6.22721 -4.73251,8.97552 -0.79035,1.36885 -1.46805,2.24623 -2.01136,2.72494 -0.46597,0.40553 -0.99168,0.60195 -1.5655,0.60382 -0.54936,10e-4 -1.03167,-0.17371 -1.44105,-0.53687 -0.19165,-0.16229 -0.51736,-0.56701 -0.96872,-1.23643 -1.36183,-2.08273 -2.48212,-4.09144 -3.20529,-5.53991 -1.32867,-2.73303 -3.42136,-7.2687 -4.73236,-10.0227 -0.63677,-1.36703 -1.34579,-2.01993 -2.12223,-2.00887 -0.62707,0.009 -1.04147,0.39005 -1.23939,1.1592 -0.25961,0.98896 -0.4444,3.64727 -0.53708,8.20196 -0.0455,2.2397 0.0521,3.69705 0.28644,4.46178 0.18848,0.57405 0.61664,1.04079 1.28436,1.40825 0.13373,0.0548 0.62259,0.27157 1.67298,0.72615 0.84268,0.33924 1.25375,0.93177 1.22936,1.73579 -0.0641,2.11399 -3.73393,2.98335 -10.93768,2.9922 -5.98776,0.007 -8.94904,-0.82881 -8.90605,-2.86108 0.0128,-0.60147 0.34703,-1.10196 1.00445,-1.48157 0.18024,-0.10177 0.81609,-0.35837 1.92813,-0.79169 0.8316,-0.32909 1.39011,-0.75345 1.67503,-1.28027 0.31043,-0.54813 0.57959,-1.61953 0.81064,-3.2852 0.2105,-1.42396 0.43695,-4.06469 0.78105,-8.28744 0.32986,-4.0181 0.57546,-7.49221 0.68301,-9.84901 0.11803,-2.58569 -0.12666,-3.59397 -0.72462,-4.05748 -0.23814,-0.17954 -0.57085,-0.29209 -0.99152,-0.36046 -0.21488,-0.0327 -0.70453,-0.0918 -1.41838,-0.15748 -1.74398,-0.14829 -2.60746,-0.3206 -2.59331,-0.37548 0.0131,-0.051 0.82133,0.0515 2.42789,0.15091 0.90618,0.0533 2.40692,0.0937 4.51725,0.094 2.39166,0.003 4.30874,-0.0213 5.94963,-0.0854 3.14171,-0.12287 5.3299,-0.29153 6.71885,-0.45707 0.63541,-0.0722 1.13149,-0.15219 1.51568,-0.22579 0.29331,-0.051 0.97225,-0.21431 1.65979,-0.20531 2.58986,0.0297 5.06333,2.06576 7.52003,5.17263 0.87346,1.09941 1.38683,1.77017 1.67812,1.96501 0.39159,0.25147 0.83674,0.37426 1.34069,0.36253 0.91902,-0.0214 1.82667,-0.72056 2.80686,-1.97147 1.89471,-2.42476 3.7863,-4.35193 5.64135,-5.49374 0.69234,-0.43583 1.21928,-0.65254 1.3315,-0.7013 1.21957,-0.50335 2.5281,-0.47089 3.68138,-0.47577 1.77171,-0.0101 4.0935,-0.0645 8.30346,-0.37618 7.18886,-0.53213 10.86388,-1.18094 10.84893,-0.75294 -0.003,0.10502 -0.21341,0.25505 -0.62744,0.43397 -0.15907,0.0787 -0.66581,0.22168 -1.54147,0.46272 -1.20491,0.33497 -1.97051,0.80536 -2.29816,1.5833 -0.68938,1.64659 -1.15424,4.3427 -1.33232,8.44329 -0.2379,5.47865 -0.0417,11.01871 0.47544,15.39617 0.12003,1.20843 0.46064,2.05779 1.02364,2.5792 0.14456,0.1504 0.80261,0.56481 1.96126,1.2183 0.8882,0.50655 1.31687,1.18413 1.2803,2.00277 -0.0639,1.42998 -1.29546,2.3584 -3.66787,2.89163 -1.24915,0.2936 -2.54778,0.48082 -3.88237,0.57065 -1.33682,0.09 -3.43489,0.13644 -6.29306,0.14128 -5.22278,0.009 -8.79989,-0.31222 -10.64877,-0.99487 -1.32548,-0.49466 -1.9692,-1.17731 -1.93414,-2.09455 0.0232,-0.60544 0.38112,-1.19351 1.07606,-1.75688 0.16019,-0.15069 0.75234,-0.5585 1.80671,-1.27624 0.89616,-0.62741 1.41724,-1.81941 1.56086,-3.65639 0.20731,-2.4708 0.33328,-4.58387 0.37188,-6.05417 0.0469,-1.7828 0.007,-2.93953 -0.1262,-3.49924 -0.18058,-0.64925 -0.58523,-0.96238 -1.2138,-0.94974 -0.62812,0.0126 -1.20535,0.32328 -1.72645,0.93903 -0.80151,0.89153 -1.91255,2.74936 -3.43391,5.76203 z"
             inkscape:connector-curvature="0"
             sodipodi:nodetypes="ccccccccccscccscccccccsccccccccccccccccccccccscccscccccccccccccc" />
          <path
             style="font-style:normal;font-variant:normal;font-weight:normal;font-stretch:normal;font-size:80px;font-family:'Cooper Becker Poster Black';-inkscape-font-specification:'Cooper Becker Poster Black, ';fill:#cccccc;stroke:#000000;stroke-width:1.82273412;stroke-miterlimit:4;stroke-dasharray:none"
             d="m 519.83031,689.14075 c -1.69013,3.17367 -3.33601,6.12986 -5.16058,8.67216 -0.8958,1.24419 -1.68726,2.01681 -2.29157,2.42988 -0.52137,0.35234 -1.09083,0.52147 -1.68584,0.52608 -0.57065,0.004 -1.05316,-0.14158 -1.44351,-0.44837 -0.18392,-0.13735 -0.48374,-0.48011 -0.90157,-1.05775 -1.27341,-1.82261 -2.33881,-3.59724 -3.06359,-4.96331 -1.60047,-3.10365 -3.13572,-6.29519 -4.77068,-9.52623 -0.64736,-1.30848 -1.37501,-1.91189 -2.1805,-1.87233 -0.65045,0.0319 -1.08513,0.41498 -1.29844,1.16579 -0.30222,1.0438 -0.47045,3.48809 -0.65261,7.91515 -0.0871,2.11626 -0.0359,3.4358 0.17743,4.11883 0.17337,0.51313 0.59658,0.92044 1.27161,1.23526 0.13865,0.0472 0.63073,0.23011 1.69871,0.6156 0.85508,0.28586 1.24896,0.80012 1.16204,1.48542 -0.22788,1.79703 -4.19073,2.47065 -11.64794,2.48848 -6.2211,0.0146 -9.14597,-0.5991 -8.95316,-2.20453 0.0581,-0.48376 0.4354,-0.89913 1.13974,-1.22315 0.19825,-0.0893 0.86211,-0.30542 2.04371,-0.69047 0.8797,-0.29086 1.47984,-0.66346 1.79738,-1.12799 0.34416,-0.48251 0.66694,-1.42987 0.94612,-2.9571 0.26895,-1.39307 0.51796,-3.68373 0.92932,-7.84031 0.34278,-3.44102 0.72971,-7.56293 0.86572,-9.2546 0.18677,-2.32301 -0.0165,-3.21772 -0.62505,-3.62954 -0.24069,-0.15792 -0.58158,-0.25135 -1.01592,-0.29708 -0.22373,-0.0213 -0.72615,-0.0538 -1.46682,-0.0845 -1.80663,-0.062 -2.69549,-0.21201 -2.68373,-0.36788 0.0115,-0.1561 0.84006,-0.25111 2.49894,-0.39177 0.97606,-0.0829 2.44961,-0.20131 4.67998,-0.39817 2.49885,-0.22003 4.45569,-0.40337 6.18063,-0.5742 -2.84131,0.2814 11.66384,-1.17712 7.00631,-0.71608 0.65592,-0.0651 1.19416,-0.11415 1.58961,-0.13476 0.33738,-0.0194 0.99566,-0.0425 1.73943,0.0751 2.70471,0.40665 5.13218,2.03356 7.60669,4.86311 0.87578,0.99633 1.39227,1.6154 1.69064,1.78925 0.40055,0.22327 0.85943,0.32171 1.38233,0.28804 0.95508,-0.0614 1.90679,-0.776 2.95812,-2.01838 2.04936,-2.42808 4.05597,-4.28214 6.05882,-5.64837 0.71375,-0.49683 1.32725,-0.85532 1.41941,-0.91162 1.30271,-0.75902 2.64449,-1.11997 3.84825,-1.35454 1.46861,-0.28378 4.61813,-0.70934 8.6318,-1.21931 7.47996,-0.95039 11.3323,-1.35829 11.27953,-0.49876 -0.0113,0.19114 -0.23943,0.41911 -0.67988,0.67349 -0.16781,0.10978 -0.70595,0.31862 -1.62548,0.64517 -1.26716,0.45392 -2.0902,1.02488 -2.46793,1.84505 -0.79446,1.73411 -1.39589,4.3671 -1.64809,8.49701 -0.33882,5.54757 -0.0845,11.28625 0.37403,15.65915 0.10288,1.20652 0.43089,2.03803 0.99866,2.54199 0.14577,0.14623 0.8149,0.54191 1.99226,1.16495 0.90098,0.48241 1.31492,1.13953 1.2224,1.92971 -0.16161,1.37979 -1.54577,2.2628 -4.07606,2.76766 -1.33388,0.2778 -2.71075,0.453 -4.11044,0.53801 -1.40481,0.0853 -3.58961,0.1308 -6.56495,0.14018 -5.42295,0.017 -9.11565,-0.2608 -10.94965,-0.84703 -1.32309,-0.42774 -1.92299,-1.0215 -1.81731,-1.8461 0.0698,-0.54482 0.47882,-1.08487 1.23194,-1.61496 0.18205,-0.14733 0.80531,-0.5199 1.93967,-1.21788 0.95805,-0.6054 1.54628,-1.74507 1.7318,-3.54314 0.2596,-2.37663 0.40555,-4.5959 0.45333,-6.02711 0.0596,-1.79095 0.0248,-2.9594 -0.10825,-3.51366 -0.18246,-0.64573 -0.59922,-0.94455 -1.25133,-0.90935 -0.65144,0.0352 -1.25328,0.3666 -1.79857,1.0007 -0.86401,0.94796 -1.97752,2.79453 -3.6069,5.85907 0,0 -10e-6,4e-5 -10e-6,4e-5 z"
             id="path3389"
             inkscape:original-d="m 507.23898,686.88337 c -1.5957,3.30434 -3.20879,6.64321 -4.84315,9.6279 -0.82089,1.49399 -1.52986,2.47024 -2.09358,3.0054 -0.48361,0.45362 -1.02128,0.67541 -1.60076,0.67846 -0.55508,0.003 -1.03418,-0.1936 -1.43569,-0.59726 -0.18914,-0.18123 -0.50246,-0.62889 -0.94195,-1.3637 -1.33715,-2.30825 -2.41937,-4.38671 -3.1496,-5.95002 -1.42628,-3.13752 -3.29928,-7.40302 -4.70809,-10.54037 -0.63228,-1.43961 -1.33943,-2.12531 -2.12167,-2.10297 -0.63143,0.018 -1.05196,0.42923 -1.25707,1.24644 -0.27517,1.07544 -0.46734,3.83417 -0.58995,8.64415 -0.0601,2.35653 0.023,3.90546 0.24916,4.71666 0.18269,0.60973 0.6071,1.10596 1.274,1.49608 0.11654,0.0504 0.64042,0.2948 1.67347,0.77142 0.84268,0.36115 1.24646,0.99948 1.20026,1.87744 -0.12224,2.32356 -3.88673,3.31615 -11.14687,3.32913 -6.0422,0.0104 -8.95735,-0.92723 -8.85191,-3.10967 0.0312,-0.64598 0.3797,-1.18127 1.05022,-1.58942 0.18389,-0.10951 0.82951,-0.38622 1.95765,-0.85376 0.84359,-0.35493 1.41331,-0.80927 1.70797,-1.369 0.32065,-0.58246 0.60614,-1.71727 0.85286,-3.46832 0.22805,-1.52424 0.46351,-4.23505 0.84004,-8.69147 0.35493,-4.17222 0.65134,-7.97763 0.79895,-10.56196 0.16496,-2.88789 -0.0502,-4.17385 -0.64294,-4.78023 -0.23578,-0.23428 -0.56741,-0.38504 -0.98972,-0.4727 -0.21709,-0.0418 -0.70573,-0.11426 -1.42457,-0.19659 -1.7539,-0.18222 -2.61838,-0.44777 -2.60908,-0.6809 0.009,-0.23296 0.81156,-0.33266 2.41936,-0.45291 1.02903,-0.0771 2.29128,-0.16114 4.53634,-0.33576 2.43792,-0.18881 4.30384,-0.34561 5.99175,-0.50012 2.91298,-0.26666 5.64076,-0.5426 6.79338,-0.6439 0.63622,-0.0561 1.15814,-0.0952 1.54208,-0.1 0.33044,-0.007 0.96363,0.003 1.69112,0.23256 2.61495,0.79321 5.03957,3.39485 7.45135,6.91048 0.85292,1.23721 1.37229,1.98378 1.6566,2.19227 0.39037,0.27454 0.83753,0.40474 1.34518,0.38523 0.92246,-0.0354 1.8541,-0.81849 2.86057,-2.25228 1.9584,-2.79743 3.90909,-5.17955 5.82275,-6.97757 0.69133,-0.66397 1.2725,-1.14322 1.36611,-1.22413 1.26848,-1.04059 2.54056,-1.49291 3.72172,-1.76222 1.42515,-0.32113 4.48147,-0.7219 8.3818,-1.16286 7.26814,-0.82173 11.01585,-1.05757 10.97736,0.25277 -0.008,0.2878 -0.22665,0.60679 -0.65162,0.94237 -0.16122,0.14622 -0.68307,0.40743 -1.57296,0.80268 -1.2282,0.55114 -2.01778,1.29652 -2.37403,2.36977 -0.74792,2.26572 -1.29134,5.52188 -1.51886,10.03768 -0.3042,6.03654 -0.10072,11.81932 0.40984,16.53903 0.11745,1.2979 0.45685,2.21763 1.02236,2.78279 0.14624,0.16436 0.80618,0.61016 1.97288,1.32453 0.89316,0.55307 1.32049,1.29841 1.27175,2.21178 -0.0853,1.59717 -1.35618,2.66888 -3.77357,3.28812 -1.27401,0.34116 -2.59345,0.56024 -3.94787,0.66546 -1.35691,0.10542 -3.47946,0.15969 -6.3712,0.16539 -5.28529,0.0103 -8.87964,-0.36576 -10.7246,-1.14169 -1.32123,-0.56176 -1.94925,-1.32971 -1.8933,-2.34523 0.0369,-0.67025 0.4087,-1.31641 1.11855,-1.93398 0.16344,-0.16457 0.76822,-0.61303 1.83992,-1.39517 0.91153,-0.68391 1.44835,-1.97509 1.60236,-3.93822 0.21998,-2.6236 0.3538,-4.89323 0.39802,-6.44198 0.0539,-1.8939 0.0203,-3.13049 -0.11025,-3.7274 -0.17816,-0.69314 -0.58358,-1.02577 -1.21741,-1.00658 -0.63338,0.0192 -1.21726,0.35783 -1.74656,1.0208 -0.81296,0.95936 -1.94498,2.95113 -3.48889,6.15351 z"
             inkscape:connector-curvature="0"
             sodipodi:nodetypes="ccccccccccscccscccccccsccccccsccccccccccsccccscccscsccsccccccccc" />
          <path
             style="font-style:normal;font-variant:normal;font-weight:normal;font-stretch:normal;font-size:80px;font-family:'Cooper Becker Poster Black';-inkscape-font-specification:'Cooper Becker Poster Black, ';fill:#cccccc;stroke:#000000;stroke-width:1.82273412;stroke-miterlimit:4;stroke-dasharray:none"
             d="m 560.10282,663.27141 c 6.77054,-0.91977 13.55435,-1.87789 20.33798,-2.87131 5.48693,-0.80354 9.24558,-1.42197 11.39863,-1.85808 0.68075,-0.13654 1.72398,-0.37761 3.10518,-0.72362 0.54836,-0.1347 0.99497,-0.23066 1.33813,-0.28643 1.32644,-0.21562 2.60773,-0.2185 3.66897,0.14147 1.78505,0.61683 2.56737,1.83232 2.3435,3.88839 -0.11946,1.10138 -0.66816,2.08862 -1.61016,2.81878 -0.8086,0.65096 -1.76804,1.03176 -2.90473,1.12974 -0.92267,0.0795 -1.6151,-0.009 -2.08399,-0.25303 -0.40607,-0.2024 -0.92985,-0.66766 -1.64427,-1.35217 -1.14815,-1.06155 -2.8449,-1.51476 -5.02407,-1.55384 -1.6146,-0.0391 -4.09271,0.14976 -7.44398,0.53825 -3.07264,0.3562 -5.04129,0.77657 -5.83823,1.27247 -0.50204,0.31122 -0.84345,0.78326 -1.02863,1.48872 -0.0763,0.28074 -0.27291,1.53234 -0.52137,4.09611 -0.13898,1.4339 -0.0303,2.38934 0.31009,2.6978 0.41474,0.36645 1.82758,0.47235 4.24054,0.30659 1.23409,-0.0847 2.08554,-0.34835 2.56533,-0.78688 0.50335,-0.41805 0.85667,-1.08666 1.06795,-1.96213 0.39911,-1.53071 0.77544,-2.38958 1.09264,-2.71305 0.7595,-0.81884 1.73441,-1.26277 2.88587,-1.36844 1.07455,-0.0986 1.98033,0.14147 2.68806,0.78017 0.5693,0.5298 0.94843,1.56614 1.15839,3.30458 0.18188,1.46959 0.21972,3.06065 0.12208,4.71847 -0.2213,3.75611 -0.93421,7.15014 -2.27374,9.84624 -0.73707,1.45359 -1.82412,2.20427 -3.26921,2.2647 -0.9189,0.0384 -1.56966,-0.22883 -1.95147,-0.80124 -0.2555,-0.32151 -0.46266,-1.18501 -0.61328,-2.5831 -0.21981,-1.80401 -0.87424,-2.97209 -1.97862,-3.53399 -0.79703,-0.37962 -1.83759,-0.53137 -3.1211,-0.46115 -1.30874,0.0716 -2.2103,0.64592 -2.68956,1.73643 -0.28446,0.68663 -0.44772,1.77803 -0.48461,3.2979 -0.0467,1.90733 0.0942,4.2125 0.36906,7.15787 0.11258,1.28774 0.45322,2.04281 1.04389,2.30888 1.0221,0.46355 3.23579,0.648 6.62753,0.55285 4.55026,-0.12772 7.87414,-0.87038 9.92143,-2.30543 1.59521,-1.12555 2.89936,-2.72345 3.93431,-4.84686 0.76267,-1.54087 1.42739,-2.5812 2.01806,-3.13227 0.61273,-0.54825 1.39256,-0.84315 2.3382,-0.88308 1.10347,-0.0466 2.00112,0.38716 2.69803,1.30592 0.72178,0.9426 1.07822,2.13005 1.05889,3.54018 -0.0285,2.07596 -0.75106,4.81078 -2.31686,7.75412 -1.53956,2.85959 -3.02793,4.4863 -4.15117,5.16368 -0.50919,0.3199 -1.0734,0.4768 -1.67956,0.47903 -0.58097,0.002 -1.32077,-0.0573 -2.21935,-0.17691 -1.61694,-0.24082 -3.83644,-0.38118 -6.67634,-0.42367 -11.26807,0.0737 -22.23303,0.14407 -33.42489,0.21162 -1.54267,0.01 -2.5972,-0.21656 -3.16102,-0.69114 -0.52169,-0.44243 -0.73613,-0.98094 -0.65096,-1.63902 0.0828,-0.63995 0.40997,-1.16194 0.99666,-1.54501 0.22502,-0.13012 0.84441,-0.38672 1.87597,-0.79419 1.10651,-0.40788 1.85508,-0.95572 2.23887,-1.65716 1.47043,-2.62961 1.97966,-7.64513 2.38521,-16.08423 0.21909,-4.55866 0.32517,-7.40976 0.21715,-9.28737 -0.10711,-1.86154 -0.4287,-2.7855 -1.0211,-3.27176 -0.28491,-0.23099 -0.71621,-0.3513 -1.28388,-0.3825 -0.15231,-0.0109 -0.65118,-0.0132 -1.48204,-0.001 -1.48578,0.0128 -2.19711,-0.23756 -2.17613,-0.63313 0.0215,-0.40436 0.74293,-0.68539 2.20808,-0.97974 0.84508,-0.17175 3.03484,-0.4913 6.46966,-0.95792 0,0 -2e-5,0 -2e-5,0 z"
             id="path3391"
             inkscape:original-d="m 546.23371,658.13097 c 6.61057,-0.75413 13.17226,-1.51488 19.8081,-2.28558 5.36207,-0.62278 9.00519,-1.11781 11.12079,-1.52818 0.66633,-0.12717 1.68277,-0.36917 3.03536,-0.72804 0.53651,-0.13825 0.97318,-0.22913 1.30862,-0.27125 1.30268,-0.16362 2.53818,0.003 3.57449,0.65634 1.73195,1.10857 2.49439,2.88549 2.30347,5.45233 -0.10161,1.37224 -0.62021,2.51777 -1.52854,3.32896 -0.77715,0.72294 -1.71198,1.11624 -2.81908,1.17105 -0.89978,0.0445 -1.57849,-0.0945 -2.04031,-0.40938 -0.39652,-0.25958 -0.92332,-0.84501 -1.62893,-1.72867 -1.14292,-1.3845 -2.79804,-2.11362 -4.93007,-2.33801 -1.57647,-0.17935 -3.994,-0.13066 -7.25893,0.12394 -2.99702,0.2337 -4.90517,0.65212 -5.67833,1.26225 -0.48546,0.38148 -0.81015,0.98891 -0.97962,1.88616 -0.0758,0.38639 -0.23378,1.94475 -0.4462,4.95367 -0.11652,1.65028 -0.003,2.70723 0.33218,3.062 0.40763,0.42112 1.78674,0.59066 4.13955,0.502 1.20273,-0.0453 2.03291,-0.2997 2.49646,-0.76088 0.48709,-0.43821 0.82596,-1.15938 1.02114,-2.13563 0.37237,-1.71555 0.72132,-2.71063 1.02821,-3.07995 0.73121,-0.93353 1.67011,-1.41768 2.79538,-1.47922 1.04935,-0.0574 1.93428,0.28818 2.6376,1.07916 0.56401,0.65287 0.95222,1.88287 1.17841,3.8155 0.19537,1.63276 0.24569,3.33375 0.15658,5.06474 -0.20107,3.90467 -0.92328,7.28567 -2.24284,9.96076 -0.72626,1.44262 -1.78913,2.17659 -3.19695,2.20719 -0.89551,0.0194 -1.52861,-0.26382 -1.89842,-0.84945 -0.24781,-0.32996 -0.44573,-1.20447 -0.58588,-2.61843 -0.2056,-1.82479 -0.83967,-3.0306 -1.91542,-3.63467 -0.77642,-0.40949 -1.7906,-0.59457 -3.04224,-0.5585 -1.27664,0.0368 -2.15513,0.60246 -2.62568,1.70485 -0.27884,0.69316 -0.44217,1.80296 -0.48345,3.34288 -0.0514,1.90233 0.0743,4.30016 0.36304,7.315 0.12065,1.33662 0.46715,2.13877 1.04654,2.42815 1.00535,0.5054 3.16022,0.73291 6.46105,0.683 4.42741,-0.067 7.64387,-0.79889 9.62569,-2.23496 1.54143,-1.12454 2.81205,-2.72606 3.82937,-4.83006 0.7492,-1.52583 1.40951,-2.55378 1.98748,-3.08936 0.60165,-0.53433 1.36458,-0.81182 2.28762,-0.83172 1.07701,-0.0232 1.94981,0.42785 2.62234,1.35575 0.69713,0.95285 1.03423,2.13883 1.00852,3.54723 -0.0382,2.08934 -0.74865,4.78728 -2.19382,7.84612 -1.4212,2.97004 -2.71969,4.75135 -3.76138,5.50446 -0.46826,0.35358 -1.00087,0.52855 -1.59099,0.52964 -0.56505,10e-4 -1.29027,-0.0673 -2.17548,-0.20436 -1.59298,-0.27491 -3.76815,-0.44139 -6.53273,-0.50069 -11.02064,0.0393 -21.5516,0.078 -32.49554,0.1177 -1.50079,0.006 -2.54505,-0.27713 -3.13275,-0.85716 -0.54225,-0.53893 -0.78912,-1.1857 -0.74425,-1.95381 0.0436,-0.74632 0.33832,-1.33911 0.89231,-1.7658 0.21141,-0.14341 0.80664,-0.42891 1.79307,-0.86889 1.06133,-0.44035 1.77134,-1.03532 2.12721,-1.79223 1.30718,-2.71716 1.88282,-8.1628 2.25365,-16.7407 0.41462,-9.58992 0.26614,-13.33255 -0.90404,-14.77512 -0.28179,-0.34343 -0.70339,-0.54907 -1.25745,-0.63915 -0.14865,-0.0278 -0.63475,-0.071 -1.44423,-0.12116 -1.44751,-0.10228 -2.1447,-0.52344 -2.13033,-1.12237 0.0148,-0.61428 0.71355,-0.99 2.13713,-1.30994 0.81475,-0.18622 2.95668,-0.47696 6.29254,-0.85751 z"
             inkscape:connector-curvature="0"
             sodipodi:nodetypes="csccccccccccsccsccccccccsccccccccccccccccscccccccccccsccccccc" />
          <path
             style="font-style:normal;font-variant:normal;font-weight:normal;font-stretch:normal;font-size:80px;font-family:'Cooper Becker Poster Black';-inkscape-font-specification:'Cooper Becker Poster Black, ';fill:#cccccc;stroke:#000000;stroke-width:1.82273412;stroke-miterlimit:4;stroke-dasharray:none"
             d="m 631.6902,677.82289 c -0.8947,0.0276 -1.48257,0.32116 -1.75855,0.88082 -0.30483,0.64073 -0.47679,1.91962 -0.49062,3.85673 -0.0264,3.69321 0.21398,6.57723 0.60389,8.33583 0.1253,0.59607 0.36865,1.04336 0.73336,1.34514 0.20736,0.22797 0.65112,0.51438 1.33099,0.85978 1.56546,0.83944 2.3301,1.94469 2.24333,3.28399 -0.11471,1.76958 -1.40829,2.94936 -3.78033,3.57352 -2.54541,0.67576 -6.33184,1.00688 -11.35524,1.03494 -9.83224,0.0549 -14.32757,-1.43388 -14.08379,-4.70248 0.0499,-0.66864 0.33438,-1.25699 0.86164,-1.76043 0.22386,-0.22733 0.79557,-0.63215 1.71689,-1.23171 1.21658,-0.75664 2.03358,-1.67686 2.4496,-2.76732 0.53364,-1.34428 0.84225,-3.5068 0.9849,-6.63468 0.0955,-2.01259 0.14878,-8.86385 1.02197,-17.38912 0.25478,-2.48784 0.28993,-4.12064 0.069,-5.24004 -0.18005,-0.96705 -0.92277,-1.52667 -2.2095,-1.75343 -1.1601,-0.19669 -1.88894,-0.36791 -2.19082,-0.53953 -0.4263,-0.2387 -0.62854,-0.52552 -0.61104,-0.85793 0.0322,-0.61218 0.69727,-1.16694 2.01096,-1.7375 1.39093,-0.59708 3.71566,-1.17156 6.83895,-1.69132 0.81722,-0.13604 3.15695,-0.4699 6.68334,-0.92799 0.79336,-0.10595 1.84516,-0.26694 3.1403,-0.48309 2.14747,-0.35837 5.4227,-0.98774 9.51691,-1.88772 2.55049,-0.55528 4.47214,-0.95887 5.86562,-1.20798 5.29231,-0.94607 9.89399,-0.89257 13.58162,0.9244 3.34893,1.64174 4.75503,4.65433 4.28901,8.84106 -0.33661,3.0247 -1.58316,5.72025 -3.64478,7.96357 -1.19502,1.2849 -2.50646,2.27764 -3.95127,2.97785 -0.8727,0.4305 -1.32798,0.94432 -1.36323,1.54258 -0.0431,0.72878 0.57295,1.3176 1.843,1.76967 2.80072,1.00561 4.94919,2.82807 6.53981,5.45434 0.88544,1.45216 1.66848,4.3181 2.25944,8.32233 0.32366,1.9431 0.78462,3.17405 1.39677,3.69016 0.45347,0.36177 1.3976,0.72934 2.83474,1.10487 0.399,0.0999 0.73165,0.30599 0.99557,0.61814 0.52784,0.59778 0.78525,1.29277 0.76032,2.08345 -0.0341,1.08084 -0.62503,2.13196 -1.78169,3.14577 -2.15429,1.93007 -5.95536,2.87369 -11.22665,2.88754 -5.33084,0.0144 -8.86769,-1.29138 -10.90071,-3.88646 -1.12833,-1.42614 -2.05453,-3.33145 -2.791,-5.71053 -0.62394,-2.08732 -1.32744,-4.59572 -1.98385,-7.27779 -0.63881,-2.5342 -1.38504,-4.25679 -2.26185,-5.1544 -1.08569,-1.15889 -2.47523,-1.70782 -4.18701,-1.65506 0,0 -4e-5,3e-5 -4e-5,3e-5 z m -0.67548,-18.08258 c -0.54983,3.25345 -0.73122,4.10288 -1.26176,7.75535 -0.006,0.0707 -0.0149,0.15505 -0.0231,0.24984 -0.0767,0.83493 -0.0178,1.40289 0.1685,1.68623 0.23363,0.35459 0.81185,0.51397 1.73376,0.47544 2.13716,-0.0893 3.75949,-0.62129 4.89897,-1.60152 1.33119,-1.15305 2.13613,-3.05339 2.41044,-5.52832 0.49746,-4.48876 -1.13367,-6.17411 -4.77998,-5.78347 -1.00601,0.10777 -1.73818,0.33877 -2.18923,0.68889 -0.45433,0.37048 -0.76891,1.03955 -0.95758,2.05756 0,0 -2e-5,0 -2e-5,0 z"
             id="path3393"
             inkscape:original-d="m 616.28441,677.85105 c -0.87582,0.0136 -1.45231,0.29534 -1.72665,0.84547 -0.30285,0.6293 -0.48212,1.89307 -0.51976,3.80127 -0.0723,3.66192 0.11893,6.46093 0.49884,8.24221 0.12006,0.5942 0.35757,1.04323 0.71367,1.3487 0.20251,0.22991 0.63607,0.52127 1.30075,0.87435 1.5318,0.85773 2.28467,1.97064 2.23467,3.3227 -0.0661,1.78614 -1.25762,2.98744 -3.52772,3.62103 -2.43245,0.68517 -6.09382,1.02365 -10.97787,1.03717 -9.54622,0.0264 -14.09719,-1.61392 -13.95924,-5.05158 0.0279,-0.69524 0.29201,-1.29896 0.79622,-1.80874 0.21322,-0.22972 0.7643,-0.63872 1.65445,-1.23518 1.17662,-0.75247 1.9678,-1.67036 2.37378,-2.75698 0.51696,-1.32951 0.83737,-3.49981 1.00551,-6.58281 0.1373,-2.43721 0.23253,-8.21813 0.96629,-17.79261 0.20804,-2.71502 0.20967,-4.64112 -0.0209,-5.98659 -0.19019,-1.17069 -0.92061,-1.92361 -2.17972,-2.31011 -1.13437,-0.33842 -1.84844,-0.62164 -2.14341,-0.87057 -0.41736,-0.34745 -0.61552,-0.74525 -0.59779,-1.19094 0.0326,-0.8216 0.68723,-1.52702 1.97823,-2.18095 1.37428,-0.68624 3.64088,-1.22195 6.70749,-1.57139 0.80856,-0.0922 3.08228,-0.27319 6.54172,-0.47867 0.77828,-0.0501 1.80526,-0.14334 3.07676,-0.27979 2.13724,-0.22934 5.28863,-0.6717 9.35183,-1.33692 2.50215,-0.40303 4.41422,-0.67796 5.77529,-0.82117 5.21574,-0.54879 9.65095,0.0714 13.18048,2.27796 3.19685,1.98954 4.56657,5.14077 4.19292,9.34782 -0.27085,3.05031 -1.42085,5.72282 -3.41007,7.95059 -1.15053,1.27279 -2.42525,2.25165 -3.83479,2.93623 -0.85139,0.42107 -1.29352,0.929 -1.32498,1.52433 -0.0385,0.72498 0.56625,1.31575 1.81122,1.7738 2.74439,1.01835 4.85026,2.83106 6.37227,5.43137 0.86034,1.45983 1.55135,4.25067 2.05319,8.23538 0.27841,1.92427 0.71337,3.1449 1.30646,3.66059 0.43902,0.36121 1.35807,0.73184 2.75876,1.11298 0.38901,0.10151 0.71226,0.30764 0.96866,0.6183 0.51302,0.59519 0.76352,1.28405 0.74598,2.0658 -0.024,1.06852 -0.57875,2.10273 -1.66841,3.09885 -2.02301,1.89193 -5.64277,2.82682 -10.77139,2.83234 -5.18397,0.006 -8.74455,-1.31833 -10.82252,-3.95519 -1.15122,-1.44721 -2.08394,-3.35921 -2.79756,-5.73318 -0.60976,-2.10107 -1.24915,-4.54249 -1.85459,-7.21098 -0.58595,-2.5027 -1.29377,-4.20747 -2.14431,-5.10708 -1.05114,-1.15912 -2.40869,-1.72371 -4.08372,-1.69784 z m -0.8476,-18.81608 c -0.55582,4.0963 -0.57133,3.99522 -1.09943,8.32421 -0.005,0.0735 -0.0122,0.16126 -0.0188,0.25971 -0.0625,0.86686 0.002,1.45298 0.18784,1.74896 0.2329,0.37018 0.80063,0.54639 1.70272,0.52721 2.08946,-0.0444 3.67598,-0.55473 4.77626,-1.53361 1.28897,-1.15497 2.04154,-3.08371 2.26156,-5.69056 0.40015,-4.7416 -1.19923,-6.78899 -4.75814,-6.5748 -0.98381,0.0592 -1.69742,0.27784 -2.13702,0.6533 -0.44213,0.39823 -0.74439,1.14928 -0.91497,2.28558 z"
             inkscape:connector-curvature="0"
             sodipodi:nodetypes="ccscccscscccccscccscccscscscccccccccsccccccccccccccscccc" />
        </g>
        <g
           id="Smoke-9-8"
           inkscape:label="#g5414"
           transform="matrix(3.1178131,0,0,3.1178131,86.002646,75.989167)">
          <path
             inkscape:connector-curvature="0"
             id="path5333-7-2"
             d="m 37.244971,60.041611 c -3.763765,0 -6.82307,2.949625 -6.82307,6.588313 0,3.638687 3.059305,6.588312 6.82307,6.588312 1.037074,0 2.007724,-0.238388 2.887666,-0.639 0.635313,0.612249 1.509339,0.991552 2.478794,0.991552 1.938909,0 3.513753,-1.51378 3.513753,-3.382294 0,-1.38226 -0.862838,-2.570797 -2.095475,-3.095846 0.01111,-0.153839 0.02555,-0.306152 0.02555,-0.462724 0,-3.638688 -3.046528,-6.588313 -6.810293,-6.588313 z"
             style="fill:#e6e6e6;fill-opacity:1;stroke:#000000;stroke-width:0.53153735;stroke-linejoin:round;stroke-miterlimit:4;stroke-dasharray:none;stroke-opacity:1" />
          <path
             id="path5337-8-6-6"
             d="m 14.040513,76.602829 c 2.262686,0 4.324796,1.019769 5.913056,2.688951 0.989788,-1.08983 2.383857,-1.76418 3.926012,-1.76418 2.843497,0 5.175256,2.310479 5.416295,5.249859 1.458798,-0.699846 3.258828,-1.109728 5.207976,-1.109728 4.863337,0 8.797472,2.572901 8.797472,5.747811 0,3.17491 -3.934135,5.74781 -8.797472,5.74781 -4.232232,0 -7.77504,-1.95449 -8.621203,-4.55272 -0.621039,0.26079 -1.294137,0.41259 -2.003068,0.41259 -0.28436,0 -0.560689,-0.0267 -0.833276,-0.0711 -0.533937,5.47588 -4.364895,9.731444 -9.005792,9.731444 -5.006378,0 -9.069888,-4.944534 -9.069888,-11.040354 0,-6.095824 4.06351,-11.040353 9.069888,-11.040353 z"
             style="fill:#e6e6e6;fill-opacity:1;stroke:#000000;stroke-width:0.67644322;stroke-linejoin:round;stroke-miterlimit:4;stroke-dasharray:none;stroke-opacity:1"
             inkscape:connector-curvature="0" />
          <path
             inkscape:connector-curvature="0"
             id="path5333-8-3-6"
             d="m 139.52205,62.148717 c 3.76376,0 6.82307,2.949625 6.82307,6.588313 0,3.638687 -3.05931,6.588312 -6.82307,6.588312 -1.03708,0 -2.00773,-0.238388 -2.88767,-0.639 -0.63531,0.612249 -1.50934,0.991552 -2.47879,0.991552 -1.93891,0 -3.51376,-1.51378 -3.51376,-3.382294 0,-1.38226 0.86284,-2.570797 2.09548,-3.095846 -0.0111,-0.153839 -0.0255,-0.306152 -0.0255,-0.462724 0,-3.638688 3.04653,-6.588313 6.81029,-6.588313 z"
             style="fill:#e6e6e6;fill-opacity:1;stroke:#000000;stroke-width:0.53153735;stroke-linejoin:round;stroke-miterlimit:4;stroke-dasharray:none;stroke-opacity:1" />
          <path
             id="path5343-2-7-4"
             d="m 169.16293,78.678629 c 5.43148,0 9.83715,4.173847 9.83715,9.321698 0,5.147845 -4.40567,9.321689 -9.83715,9.321689 -3.92465,0 -7.30624,-2.186134 -8.88386,-5.337174 -1.00836,1.78769 -2.66741,2.95694 -4.55348,2.95694 -2.50361,0 -4.62106,-2.0528 -5.32423,-4.88628 -1.03971,0.90715 -2.74429,1.49943 -4.67518,1.49943 -3.16836,0 -5.74002,-1.58907 -5.74002,-3.554605 0,-1.965542 2.57166,-3.565108 5.74002,-3.565108 1.93019,0 3.63536,0.592841 4.67518,1.499441 0.7056,-2.828471 2.82348,-4.886284 5.32423,-4.886284 1.88607,0 3.54512,1.169243 4.55348,2.95694 1.57783,-3.150533 4.95961,-5.326687 8.88386,-5.326687 z"
             style="fill:#e6e6e6;fill-opacity:1;stroke:#000000;stroke-width:0.46197993;stroke-linejoin:round;stroke-miterlimit:4;stroke-dasharray:none;stroke-opacity:1"
             inkscape:connector-curvature="0" />
        </g>
      </g>
    </g>
    <path
       style="fill:#ff00ff;fill-opacity:1;stroke:none;stroke-width:1.08381045;stroke-miterlimit:4;stroke-dasharray:none;stroke-opacity:1"
       d="m 39.190185,893.54979 a 55.873652,56.896882 0 0 0 -7.806051,80.07009 55.873652,56.896882 0 0 0 65.321919,16.1448 l 0.337683,0.41969 5.421094,-4.52312 6.56362,8.15747 -5.42109,4.52316 32.04558,39.82722 a 14.833594,14.181163 62.32785 0 0 1.72912,2.6916 14.833594,14.181163 62.32785 0 0 20.19278,2.4333 14.833594,14.181163 62.32785 0 0 1.62623,-20.6382 14.833594,14.181163 62.32785 0 0 -0.36293,-0.4207 l -33.35251,-41.45157 -5.52008,4.60571 -6.56362,-8.15748 5.52009,-4.60571 -0.20873,-0.25941 a 55.873652,56.896882 0 0 0 -0.89166,-70.86621 55.873652,56.896882 0 0 0 -78.631445,-7.95064 z m 13.1658,18.1054 a 33.164537,34.473118 36.977011 0 1 47.251138,3.85786 33.164537,34.473118 36.977011 0 1 -5.577435,47.93558 33.164537,34.473118 36.977011 0 1 -47.251151,-3.85786 33.164537,34.473118 36.977011 0 1 5.577448,-47.93558 z"
       id="path3571"
       inkscape:connector-curvature="0" />
    <text
       transform="scale(0.70764197,1.413144)"
       sodipodi:linespacing="125%"
       id="text4452"
       y="652.84851"
       x="132.23352"
       style="font-style:normal;font-variant:normal;font-weight:normal;font-stretch:normal;font-size:36.10063934px;line-height:125%;font-family:'Cooper Becker Poster Black';-inkscape-font-specification:'Cooper Becker Poster Black, ';text-align:center;letter-spacing:0px;word-spacing:0px;text-anchor:middle;fill:#ffff00;fill-opacity:1;stroke:#000000;stroke-width:0.99152422px;stroke-linecap:butt;stroke-linejoin:miter;stroke-opacity:1"
       xml:space="preserve"><tspan
         style="font-style:normal;font-variant:normal;font-weight:normal;font-stretch:normal;font-family:'Cooper Becker Poster Black';-inkscape-font-specification:'Cooper Becker Poster Black, ';fill:#ffff00;stroke:#000000;stroke-width:0.99152422px;stroke-opacity:1"
         y="652.84851"
         x="132.23352"
         id="tspan4454"
         sodipodi:role="line">WP Custom</tspan><tspan
         style="font-style:normal;font-variant:normal;font-weight:normal;font-stretch:normal;font-family:'Cooper Becker Poster Black';-inkscape-font-specification:'Cooper Becker Poster Black, ';fill:#ffff00;stroke:#000000;stroke-width:0.99152422px;stroke-opacity:1"
         id="tspan4456"
         y="697.9743"
         x="132.23352"
         sodipodi:role="line">Fields Search</tspan></text>
  </g>
</svg>
